<svg xmlns="http://www.w3.org/2000/svg" xmlns:xlink="http://www.w3.org/1999/xlink" width="300" zoomAndPan="magnify" viewBox="0 0 224.87999 225" height="300" preserveAspectRatio="xMidYMid meet" version="1.0"><defs><clipPath id="f79f8ad472"><path d="M 22.488281 55 L 199.394531 55 L 199.394531 179 L 22.488281 179 Z M 22.488281 55 " clip-rule="nonzero"/></clipPath><clipPath id="ac4c15030a"><path d="M 75 54.597656 L 182 54.597656 L 182 119 L 75 119 Z M 75 54.597656 " clip-rule="nonzero"/></clipPath><clipPath id="52fba5a6a7"><path d="M 81 174 L 101 174 L 101 180.53125 L 81 180.53125 Z M 81 174 " clip-rule="nonzero"/></clipPath><clipPath id="6560bb5577"><path d="M 104 174 L 115 174 L 115 180.53125 L 104 180.53125 Z M 104 174 " clip-rule="nonzero"/></clipPath><clipPath id="ecd9ab29bb"><path d="M 119 174 L 162 174 L 162 180.53125 L 119 180.53125 Z M 119 174 " clip-rule="nonzero"/></clipPath></defs><g clip-path="url(#f79f8ad472)"><path fill="#000000" d="M 195.824219 162.609375 L 178.882812 162.609375 L 178.882812 98.738281 C 178.882812 97.152344 177.601562 95.871094 176.019531 95.871094 L 163.9375 95.871094 C 162.355469 95.871094 161.074219 97.152344 161.074219 98.738281 L 161.074219 162.609375 L 154.378906 162.609375 L 154.378906 126.667969 C 154.378906 125.085938 153.097656 123.804688 151.515625 123.804688 L 139.433594 123.804688 C 137.851562 123.804688 136.570312 125.085938 136.570312 126.667969 L 136.570312 162.609375 L 129.875 162.609375 L 129.875 110.578125 C 129.875 108.996094 128.59375 107.714844 127.011719 107.714844 L 114.929688 107.714844 C 113.347656 107.714844 112.066406 108.996094 112.066406 110.578125 L 112.066406 162.609375 L 105.371094 162.609375 L 105.371094 137.871094 C 105.371094 136.289062 104.089844 135.003906 102.511719 135.003906 L 90.425781 135.003906 C 88.84375 135.003906 87.5625 136.289062 87.5625 137.871094 L 87.5625 162.609375 L 77.949219 162.609375 C 80.1875 158.449219 81.457031 153.699219 81.457031 148.65625 C 81.457031 133.675781 70.25 121.277344 55.785156 119.394531 L 55.785156 59.144531 C 55.785156 57.164062 54.183594 55.5625 52.207031 55.5625 C 50.230469 55.5625 48.628906 57.164062 48.628906 59.144531 L 48.628906 119.335938 C 33.933594 121.003906 22.480469 133.511719 22.480469 148.65625 C 22.480469 164.929688 35.707031 178.167969 51.96875 178.167969 C 59.964844 178.167969 67.226562 174.960938 72.542969 169.773438 L 195.824219 169.773438 C 197.800781 169.773438 199.402344 168.167969 199.402344 166.191406 C 199.402344 164.210938 197.800781 162.609375 195.824219 162.609375 Z M 166.800781 101.601562 L 173.15625 101.601562 L 173.15625 162.609375 L 166.800781 162.609375 Z M 142.296875 129.535156 L 148.652344 129.535156 L 148.652344 162.609375 L 142.296875 162.609375 Z M 117.792969 113.445312 L 124.148438 113.445312 L 124.148438 162.609375 L 117.792969 162.609375 Z M 93.289062 140.734375 L 99.644531 140.734375 L 99.644531 162.609375 L 93.289062 162.609375 Z M 45.703125 160.835938 C 44.492188 160.121094 43.507812 159.167969 42.75 157.972656 C 41.992188 156.777344 41.613281 155.617188 41.613281 154.488281 C 41.613281 153.835938 41.84375 153.273438 42.296875 152.808594 C 42.75 152.339844 43.328125 152.105469 44.03125 152.105469 C 44.601562 152.105469 45.082031 152.289062 45.476562 152.652344 C 45.871094 153.015625 46.207031 153.554688 46.484375 154.269531 C 46.824219 155.121094 47.191406 155.828125 47.585938 156.398438 C 47.980469 156.96875 48.535156 157.4375 49.25 157.808594 C 49.960938 158.179688 50.902344 158.363281 52.066406 158.363281 C 53.664062 158.363281 54.964844 157.992188 55.964844 157.246094 C 56.960938 156.5 57.460938 155.570312 57.460938 154.453125 C 57.460938 153.566406 57.191406 152.851562 56.652344 152.296875 C 56.113281 151.746094 55.417969 151.324219 54.5625 151.035156 C 53.710938 150.742188 52.566406 150.433594 51.136719 150.105469 C 49.222656 149.65625 47.621094 149.132812 46.332031 148.53125 C 45.039062 147.933594 44.015625 147.113281 43.257812 146.078125 C 42.503906 145.039062 42.125 143.753906 42.125 142.210938 C 42.125 140.746094 42.523438 139.441406 43.324219 138.300781 C 44.121094 137.160156 45.28125 136.285156 46.792969 135.671875 C 47.792969 135.269531 48.90625 135.003906 50.132812 134.863281 L 50.132812 132.605469 C 50.132812 131.46875 51.0625 130.535156 52.203125 130.535156 C 53.339844 130.535156 54.269531 131.46875 54.269531 132.605469 L 54.269531 134.890625 C 55.035156 134.992188 55.742188 135.144531 56.382812 135.363281 C 57.574219 135.769531 58.566406 136.308594 59.351562 136.980469 C 60.140625 137.65625 60.714844 138.363281 61.078125 139.101562 C 61.441406 139.839844 61.625 140.5625 61.625 141.265625 C 61.625 141.910156 61.398438 142.488281 60.941406 143.003906 C 60.488281 143.519531 59.921875 143.777344 59.242188 143.777344 C 58.625 143.777344 58.15625 143.621094 57.835938 143.3125 C 57.511719 143.003906 57.164062 142.496094 56.789062 141.792969 C 56.304688 140.785156 55.722656 140 55.046875 139.4375 C 54.367188 138.875 53.277344 138.59375 51.773438 138.59375 C 50.378906 138.59375 49.257812 138.898438 48.402344 139.511719 C 47.546875 140.125 47.121094 140.859375 47.121094 141.722656 C 47.121094 142.253906 47.265625 142.714844 47.558594 143.101562 C 47.847656 143.492188 48.246094 143.824219 48.757812 144.105469 C 49.265625 144.382812 49.78125 144.601562 50.300781 144.757812 C 50.824219 144.914062 51.683594 145.144531 52.882812 145.449219 C 54.382812 145.800781 55.746094 146.1875 56.960938 146.613281 C 58.179688 147.039062 59.214844 147.554688 60.070312 148.160156 C 60.925781 148.765625 61.589844 149.53125 62.070312 150.460938 C 62.546875 151.386719 62.785156 152.523438 62.785156 153.871094 C 62.785156 155.484375 62.371094 156.933594 61.542969 158.21875 C 60.710938 159.503906 59.496094 160.511719 57.898438 161.238281 C 56.820312 161.726562 55.605469 162.050781 54.261719 162.207031 C 54.261719 162.238281 54.269531 162.265625 54.269531 162.296875 L 54.269531 164.601562 C 54.269531 165.742188 53.339844 166.671875 52.199219 166.671875 C 51.0625 166.671875 50.132812 165.742188 50.132812 164.601562 L 50.132812 162.296875 C 50.132812 162.265625 50.140625 162.242188 50.140625 162.210938 C 48.421875 162.011719 46.941406 161.558594 45.703125 160.835938 Z M 45.703125 160.835938 " fill-opacity="1" fill-rule="nonzero"/></g><g clip-path="url(#ac4c15030a)"><path fill="#000000" d="M 78.832031 118.765625 C 79.75 118.765625 80.664062 118.414062 81.363281 117.714844 L 116.75 82.300781 L 135.28125 100.847656 C 135.953125 101.519531 136.863281 101.898438 137.8125 101.898438 C 138.761719 101.898438 139.671875 101.519531 140.34375 100.847656 L 168.8125 72.355469 L 173.261719 76.804688 C 173.714844 77.257812 174.324219 77.503906 174.945312 77.503906 C 175.171875 77.503906 175.402344 77.472656 175.621094 77.40625 C 176.460938 77.15625 177.097656 76.472656 177.28125 75.617188 L 181.136719 57.605469 C 181.304688 56.8125 181.0625 55.988281 180.488281 55.417969 C 179.917969 54.84375 179.09375 54.601562 178.300781 54.769531 L 160.308594 58.628906 C 159.453125 58.8125 158.769531 59.449219 158.519531 60.289062 C 158.273438 61.128906 158.503906 62.035156 159.121094 62.652344 L 163.75 67.289062 L 137.8125 93.25 L 119.277344 74.703125 C 117.878906 73.304688 115.613281 73.304688 114.214844 74.703125 L 76.300781 112.648438 C 74.90625 114.046875 74.90625 116.316406 76.300781 117.714844 C 77 118.414062 77.917969 118.765625 78.832031 118.765625 Z M 78.832031 118.765625 " fill-opacity="1" fill-rule="nonzero"/></g><g clip-path="url(#52fba5a6a7)"><path fill="#000000" d="M 97.246094 174.753906 L 84.425781 174.753906 C 82.84375 174.753906 81.5625 176.035156 81.5625 177.617188 C 81.5625 179.203125 82.84375 180.484375 84.425781 180.484375 L 97.246094 180.484375 C 98.828125 180.484375 100.109375 179.199219 100.109375 177.617188 C 100.109375 176.035156 98.828125 174.753906 97.246094 174.753906 Z M 97.246094 174.753906 " fill-opacity="1" fill-rule="nonzero"/></g><g clip-path="url(#6560bb5577)"><path fill="#000000" d="M 111.757812 174.753906 L 107.039062 174.753906 C 105.457031 174.753906 104.175781 176.035156 104.175781 177.617188 C 104.175781 179.203125 105.457031 180.484375 107.039062 180.484375 L 111.757812 180.484375 C 113.339844 180.484375 114.621094 179.199219 114.621094 177.617188 C 114.621094 176.035156 113.339844 174.753906 111.757812 174.753906 Z M 111.757812 174.753906 " fill-opacity="1" fill-rule="nonzero"/></g><g clip-path="url(#ecd9ab29bb)"><path fill="#000000" d="M 159.070312 174.753906 L 122.101562 174.753906 C 120.519531 174.753906 119.238281 176.035156 119.238281 177.617188 C 119.238281 179.203125 120.519531 180.484375 122.101562 180.484375 L 159.070312 180.484375 C 160.652344 180.484375 161.933594 179.199219 161.933594 177.617188 C 161.933594 176.035156 160.652344 174.753906 159.070312 174.753906 Z M 159.070312 174.753906 " fill-opacity="1" fill-rule="nonzero"/></g></svg>