<svg xmlns="http://www.w3.org/2000/svg" xmlns:xlink="http://www.w3.org/1999/xlink" width="300" zoomAndPan="magnify" viewBox="0 0 224.87999 225" height="300" preserveAspectRatio="xMidYMid meet" version="1.0"><defs><clipPath id="b7adf7626f"><path d="M 40.210938 49 L 176 49 L 176 184.941406 L 40.210938 184.941406 Z M 40.210938 49 " clip-rule="nonzero"/></clipPath><clipPath id="0426e76693"><path d="M 113 40.269531 L 184.882812 40.269531 L 184.882812 112 L 113 112 Z M 113 40.269531 " clip-rule="nonzero"/></clipPath></defs><g clip-path="url(#b7adf7626f)"><path fill="#000000" d="M 171.339844 113.886719 C 165.785156 113.886719 160.230469 113.886719 154.675781 113.886719 C 151.015625 113.886719 147.324219 113.886719 143.613281 113.886719 C 133.230469 113.886719 122.691406 113.886719 112.28125 113.882812 C 111.964844 113.882812 111.699219 113.886719 111.460938 113.890625 C 111.320312 113.894531 111.171875 113.898438 111.039062 113.898438 C 111.039062 113.761719 111.039062 113.613281 111.042969 113.472656 C 111.046875 113.238281 111.050781 112.976562 111.050781 112.667969 C 111.046875 100.492188 111.046875 88.117188 111.046875 76.144531 C 111.046875 68.496094 111.046875 60.84375 111.042969 53.195312 C 111.042969 52.246094 110.9375 50.882812 110.015625 50.027344 C 109.378906 49.4375 108.492188 49.195312 107.300781 49.285156 C 106.445312 49.347656 105.570312 49.40625 104.722656 49.460938 C 101.71875 49.660156 98.613281 49.863281 95.597656 50.425781 C 91.441406 51.207031 87.410156 52.324219 83.621094 53.757812 C 79.839844 55.183594 76.195312 56.960938 72.785156 59.035156 C 69.390625 61.101562 66.136719 63.519531 63.113281 66.226562 C 60.105469 68.921875 57.246094 71.972656 54.613281 75.292969 C 51.132812 79.683594 48.25 84.429688 46.039062 89.390625 C 43.824219 94.363281 42.226562 99.683594 41.296875 105.203125 C 41 106.964844 40.765625 108.761719 40.539062 110.496094 C 40.4375 111.285156 40.332031 112.105469 40.21875 112.90625 L 40.210938 112.976562 L 40.210938 121.183594 L 40.21875 121.253906 C 40.304688 121.882812 40.386719 122.527344 40.46875 123.148438 C 40.644531 124.503906 40.824219 125.902344 41.027344 127.277344 C 41.902344 133.207031 43.527344 138.90625 45.859375 144.222656 C 48.1875 149.527344 51.273438 154.582031 55.035156 159.246094 C 59.878906 165.253906 65.441406 170.28125 71.566406 174.191406 C 77.753906 178.140625 84.671875 181.039062 92.125 182.8125 C 94.480469 183.371094 96.910156 183.691406 99.257812 183.996094 C 100.351562 184.140625 101.488281 184.289062 102.589844 184.460938 C 102.78125 184.488281 102.992188 184.542969 103.210938 184.601562 C 103.328125 184.632812 103.449219 184.664062 103.570312 184.691406 L 103.691406 184.722656 L 111.949219 184.722656 L 112.019531 184.710938 C 112.921875 184.589844 113.84375 184.484375 114.734375 184.382812 C 116.699219 184.15625 118.730469 183.921875 120.710938 183.511719 C 125.65625 182.496094 130.378906 181.042969 134.75 179.191406 C 139.125 177.339844 143.265625 175.039062 147.058594 172.359375 C 150.851562 169.679688 154.398438 166.542969 157.601562 163.035156 C 160.800781 159.535156 163.742188 155.574219 166.351562 151.257812 C 169.328125 146.324219 171.621094 141.011719 173.167969 135.460938 C 174.660156 130.09375 175.492188 124.363281 175.640625 118.429688 C 175.683594 116.75 175.554688 115.621094 174.785156 114.828125 C 174.019531 114.046875 172.898438 113.890625 171.335938 113.890625 Z M 54.523438 142.425781 C 57.253906 141.296875 59.988281 140.167969 62.722656 139.039062 C 63.847656 138.574219 64.695312 138.226562 65.441406 137.921875 L 66.179688 137.617188 C 71.714844 135.351562 76.375 133.425781 78.367188 132.601562 C 81.550781 131.289062 83.492188 130.480469 84.222656 130.179688 C 84.414062 130.097656 84.53125 130.050781 84.578125 130.03125 C 86.335938 129.304688 88.097656 128.582031 89.859375 127.855469 C 95.347656 125.59375 101.023438 123.257812 106.59375 120.917969 C 106.9375 120.773438 107.0625 120.785156 107.089844 120.792969 C 107.121094 120.800781 107.238281 120.84375 107.5 121.128906 C 114.894531 129.195312 122.4375 137.382812 129.730469 145.296875 C 131.382812 147.089844 133.035156 148.882812 134.6875 150.675781 C 136.617188 152.773438 138.550781 154.871094 140.484375 156.96875 C 142.503906 159.164062 144.527344 161.355469 146.546875 163.550781 C 146.765625 163.789062 146.980469 164.023438 147.214844 164.285156 C 135.394531 173.703125 122.386719 178.441406 108.410156 178.441406 C 104.316406 178.441406 100.132812 178.035156 95.878906 177.21875 C 73.078125 172.855469 58.394531 156.433594 52.484375 143.269531 Z M 104.183594 115.171875 L 104.164062 115.179688 C 103.074219 115.558594 86.722656 122.25 62.511719 132.179688 L 49.925781 137.472656 C 43.570312 117.523438 45.953125 99.121094 57.015625 82.753906 C 68.175781 66.246094 84.230469 57.117188 104.746094 55.609375 C 104.757812 55.773438 104.761719 55.925781 104.761719 56.070312 C 104.761719 60.558594 104.761719 65.050781 104.761719 69.539062 C 104.761719 84.164062 104.761719 99.285156 104.789062 114.160156 C 104.789062 114.507812 104.75 114.738281 104.679688 114.847656 C 104.542969 115.050781 104.273438 115.144531 104.183594 115.175781 Z M 169.269531 120.238281 C 168.359375 135.664062 162.640625 148.691406 151.8125 160 L 115.199219 120.238281 Z M 169.269531 120.238281 " fill-opacity="1" fill-rule="nonzero"/></g><g clip-path="url(#0426e76693)"><path fill="#000000" d="M 184.636719 103.375 C 184.605469 103.230469 184.570312 103.089844 184.535156 102.957031 C 184.476562 102.726562 184.421875 102.507812 184.40625 102.324219 C 184.199219 99.667969 183.828125 97.007812 183.304688 94.414062 C 182.253906 89.242188 179.929688 82.785156 178.171875 79.078125 C 176.777344 76.140625 175.152344 73.269531 173.335938 70.542969 C 168.945312 63.945312 164.238281 59.328125 161.0625 56.617188 C 156.160156 52.433594 150.839844 49.007812 145.253906 46.4375 C 139.617188 43.839844 133.550781 42.039062 127.222656 41.085938 C 125.910156 40.890625 124.578125 40.707031 123.289062 40.53125 C 122.683594 40.449219 122.082031 40.363281 121.476562 40.28125 L 121.40625 40.269531 L 116.0625 40.269531 L 115.832031 40.394531 C 114.464844 41.117188 113.800781 42.316406 113.804688 44.070312 C 113.824219 58.910156 113.824219 74 113.824219 88.589844 C 113.824219 94.859375 113.824219 101.128906 113.828125 107.394531 C 113.828125 108.304688 113.925781 109.449219 114.707031 110.226562 C 115.480469 111 116.625 111.097656 117.535156 111.097656 C 123.390625 111.101562 129.242188 111.101562 135.097656 111.101562 C 150.097656 111.101562 165.609375 111.101562 180.863281 111.121094 L 180.871094 111.121094 C 182.597656 111.121094 183.796875 110.464844 184.53125 109.109375 L 184.660156 108.871094 L 184.660156 103.484375 Z M 178.28125 104.699219 L 120.242188 104.699219 L 120.242188 46.511719 C 121.027344 46.621094 121.804688 46.71875 122.566406 46.820312 C 125.078125 47.144531 127.449219 47.449219 129.804688 47.953125 C 143 50.765625 154.191406 57.332031 163.066406 67.472656 C 165.894531 70.699219 168.136719 74.035156 168.386719 74.40625 C 169.496094 76.070312 170.539062 77.800781 171.492188 79.554688 C 171.828125 80.257812 172.160156 80.972656 172.484375 81.6875 L 172.507812 81.746094 C 172.9375 82.691406 174.019531 85.117188 174.761719 87.1875 C 176.355469 91.628906 177.453125 96.320312 178.015625 101.136719 C 178.136719 102.1875 178.199219 103.277344 178.261719 104.332031 C 178.265625 104.453125 178.273438 104.578125 178.28125 104.699219 Z M 178.28125 104.699219 " fill-opacity="1" fill-rule="nonzero"/></g><path fill="#000000" d="M 144.113281 78.371094 C 142.945312 78.109375 141.757812 77.925781 140.578125 77.695312 C 137.445312 77.078125 136.070312 75.191406 136.4375 72.011719 C 136.6875 69.828125 138.675781 67.867188 140.855469 67.582031 C 144.195312 67.144531 146.789062 69.867188 146.804688 72.765625 C 146.816406 74.332031 148.0625 75.4375 149.484375 75.371094 C 151.074219 75.300781 152.109375 74.152344 152.082031 72.503906 C 152.003906 68.152344 149.234375 64.3125 145.097656 62.871094 C 144.46875 62.652344 144.101562 62.375 144.230469 61.664062 C 144.257812 61.503906 144.230469 61.335938 144.222656 61.171875 C 144.175781 60.113281 143.632812 59.378906 142.703125 58.929688 C 141.789062 58.484375 140.898438 58.589844 140.066406 59.152344 C 139.15625 59.761719 138.847656 60.664062 138.9375 61.710938 C 138.988281 62.324219 138.785156 62.640625 138.175781 62.828125 C 136.214844 63.433594 134.703125 64.671875 133.359375 66.207031 C 129.703125 70.378906 129.878906 79.835938 137.757812 82.417969 C 139.355469 82.941406 141.050781 83.160156 142.703125 83.507812 C 145.449219 84.078125 146.75 85.609375 146.777344 88.3125 C 146.804688 91.191406 144.613281 93.515625 141.78125 93.640625 C 138.78125 93.769531 136.398438 91.242188 136.363281 88.460938 C 136.34375 86.84375 135.101562 85.722656 133.640625 85.8125 C 132.066406 85.90625 131.046875 87.0625 131.085938 88.71875 C 131.183594 93.03125 133.945312 96.898438 138.023438 98.304688 C 138.75 98.554688 138.914062 98.910156 138.972656 99.640625 C 139.027344 100.351562 139.28125 101.164062 139.722656 101.699219 C 140.433594 102.5625 141.488281 102.765625 142.558594 102.320312 C 143.640625 101.871094 144.292969 101.039062 144.210938 99.84375 C 144.148438 98.929688 144.480469 98.574219 145.335938 98.222656 C 149.175781 96.660156 151.480469 93.804688 152.011719 89.648438 C 152.71875 84.089844 149.570312 79.609375 144.113281 78.375 Z M 144.113281 78.371094 " fill-opacity="1" fill-rule="nonzero"/><path fill="#000000" d="M 156.738281 148.0625 C 157.78125 148.0625 158.433594 147.621094 158.800781 147.25 C 159.164062 146.882812 159.597656 146.222656 159.585938 145.175781 C 159.582031 144.871094 159.5625 144.59375 159.53125 144.332031 C 159.101562 140.929688 157.21875 138.355469 154.082031 136.886719 C 153.203125 136.480469 152.222656 136.585938 151.457031 137.171875 C 150.488281 137.914062 149.226562 137.90625 148.25 137.160156 C 147.523438 136.601562 146.617188 136.484375 145.757812 136.835938 C 144.128906 137.503906 142.726562 138.660156 141.703125 140.179688 C 140.679688 141.699219 140.136719 143.433594 140.132812 145.195312 C 140.128906 146.238281 140.566406 146.894531 140.929688 147.261719 C 141.296875 147.625 141.953125 148.0625 143 148.0625 C 143.789062 148.0625 144.582031 148.0625 145.371094 148.0625 C 146.867188 148.0625 148.363281 148.0625 149.859375 148.0625 C 150.363281 148.0625 150.863281 148.0625 151.367188 148.0625 L 152.808594 148.0625 C 154.117188 148.0625 155.429688 148.0625 156.738281 148.0625 Z M 149.855469 143.625 C 148.199219 143.625 146.539062 143.625 144.882812 143.625 C 145.230469 142.726562 145.855469 141.921875 146.644531 141.378906 C 148.667969 142.425781 151.035156 142.429688 153.058594 141.390625 C 153.910156 141.960938 154.492188 142.695312 154.828125 143.625 C 154.15625 143.625 153.480469 143.625 152.808594 143.625 L 151.367188 143.625 C 150.863281 143.625 150.359375 143.625 149.855469 143.625 Z M 149.855469 143.625 " fill-opacity="1" fill-rule="nonzero"/><path fill="#000000" d="M 149.867188 136.636719 L 149.875 136.636719 C 153.449219 136.636719 156.367188 133.71875 156.378906 130.128906 C 156.382812 128.402344 155.710938 126.773438 154.480469 125.539062 C 153.25 124.304688 151.617188 123.621094 149.882812 123.621094 L 149.875 123.621094 C 148.121094 123.621094 146.472656 124.300781 145.234375 125.542969 C 144.007812 126.769531 143.335938 128.398438 143.339844 130.128906 C 143.34375 131.871094 144.027344 133.507812 145.257812 134.734375 C 146.488281 135.957031 148.125 136.632812 149.867188 136.636719 Z M 148.375 128.679688 C 148.773438 128.28125 149.308594 128.058594 149.875 128.058594 L 149.878906 128.058594 C 150.425781 128.0625 150.941406 128.277344 151.335938 128.671875 C 151.722656 129.066406 151.9375 129.578125 151.9375 130.113281 C 151.933594 131.261719 151.007812 132.195312 149.875 132.195312 C 148.703125 132.195312 147.785156 131.28125 147.78125 130.117188 C 147.78125 129.574219 147.992188 129.066406 148.375 128.679688 Z M 148.375 128.679688 " fill-opacity="1" fill-rule="nonzero"/><path fill="#000000" d="M 89.300781 139.429688 L 94.867188 139.429688 L 94.867188 162.519531 L 89.300781 162.519531 Z M 89.300781 139.429688 " fill-opacity="1" fill-rule="nonzero"/><path fill="#000000" d="M 99.234375 147.070312 L 104.800781 147.070312 L 104.800781 162.519531 L 99.234375 162.519531 Z M 99.234375 147.070312 " fill-opacity="1" fill-rule="nonzero"/><path fill="#000000" d="M 109.167969 133.476562 L 114.734375 133.476562 L 114.734375 162.519531 L 109.167969 162.519531 Z M 109.167969 133.476562 " fill-opacity="1" fill-rule="nonzero"/><path fill="#000000" d="M 79.367188 163.785156 L 116.105469 163.785156 L 116.105469 165.96875 L 79.367188 165.96875 Z M 79.367188 163.785156 " fill-opacity="1" fill-rule="nonzero"/><path fill="#000000" d="M 79.367188 147.070312 L 84.929688 147.070312 L 84.929688 162.519531 L 79.367188 162.519531 Z M 79.367188 147.070312 " fill-opacity="1" fill-rule="nonzero"/><path fill="#000000" d="M 75.71875 76.84375 C 75.683594 76.84375 75.648438 76.84375 75.613281 76.84375 C 70.351562 76.84375 65.40625 78.875 61.679688 82.574219 C 57.894531 86.324219 55.804688 91.34375 55.785156 96.714844 C 55.769531 101.960938 57.8125 106.917969 61.539062 110.664062 C 65.289062 114.4375 70.28125 116.523438 75.585938 116.535156 L 75.632812 116.535156 C 80.890625 116.535156 85.847656 114.480469 89.59375 110.75 C 93.347656 107.003906 95.421875 102.035156 95.433594 96.753906 C 95.441406 91.460938 93.398438 86.476562 89.679688 82.71875 C 85.957031 78.957031 81 76.871094 75.71875 76.84375 Z M 86.800781 107.960938 C 83.804688 110.929688 79.824219 112.5625 75.59375 112.5625 C 75.570312 112.5625 75.546875 112.5625 75.523438 112.5625 C 71.296875 112.546875 67.320312 110.878906 64.324219 107.867188 C 61.328125 104.859375 59.6875 100.882812 59.707031 96.675781 C 59.726562 92.40625 61.398438 88.40625 64.417969 85.414062 C 67.417969 82.441406 71.398438 80.808594 75.640625 80.808594 C 75.667969 80.808594 75.695312 80.808594 75.71875 80.808594 C 84.449219 80.847656 91.527344 87.992188 91.496094 96.730469 C 91.480469 100.984375 89.8125 104.972656 86.800781 107.960938 Z M 86.800781 107.960938 " fill-opacity="1" fill-rule="nonzero"/><path fill="#000000" d="M 85.988281 104.308594 C 85.914062 104.230469 85.84375 104.15625 85.78125 104.089844 C 85.644531 103.945312 85.53125 103.828125 85.414062 103.710938 L 83.828125 102.121094 C 81.796875 100.089844 79.695312 97.984375 77.621094 95.925781 C 77.605469 95.914062 77.59375 95.898438 77.585938 95.890625 C 77.585938 95.882812 77.585938 95.875 77.585938 95.863281 C 77.597656 93.035156 77.597656 90.164062 77.597656 87.386719 C 77.597656 86.519531 77.59375 85.652344 77.59375 84.785156 L 77.59375 84.054688 C 77.59375 83.277344 76.964844 82.648438 76.1875 82.648438 L 75.0625 82.648438 C 74.339844 82.648438 73.734375 83.199219 73.664062 83.917969 C 73.660156 83.957031 73.65625 83.992188 73.652344 84.019531 C 73.640625 84.109375 73.628906 84.21875 73.628906 84.351562 L 73.625 86.429688 C 73.625 89.726562 73.621094 93.132812 73.644531 96.484375 C 73.648438 97.230469 74.0625 97.914062 74.453125 98.308594 C 76.03125 99.90625 77.648438 101.523438 79.207031 103.085938 C 80.132812 104.011719 81.058594 104.9375 81.980469 105.863281 C 82.214844 106.097656 82.4375 106.355469 82.65625 106.605469 C 82.761719 106.722656 82.855469 106.835938 82.949219 106.9375 C 83.433594 107.476562 84.246094 107.5625 84.828125 107.132812 L 85.804688 106.414062 C 86.488281 105.910156 86.574219 104.921875 85.988281 104.308594 Z M 85.988281 104.308594 " fill-opacity="1" fill-rule="nonzero"/></svg>