<svg xmlns="http://www.w3.org/2000/svg" xmlns:xlink="http://www.w3.org/1999/xlink" width="300" zoomAndPan="magnify" viewBox="0 0 224.87999 225" height="300" preserveAspectRatio="xMidYMid meet" version="1.0"><defs><clipPath id="fdf6f91335"><path d="M 50 56 L 182 56 L 182 172.523438 L 50 172.523438 Z M 50 56 " clip-rule="nonzero"/></clipPath></defs><g clip-path="url(#fdf6f91335)"><path fill="#000000" d="M 116.136719 172.5625 C 115.503906 172.5625 114.894531 172.4375 114.3125 172.191406 C 113.730469 171.945312 113.21875 171.59375 112.777344 171.140625 L 60.707031 117.371094 C 59.933594 116.570312 59.195312 115.738281 58.5 114.871094 C 57.804688 114.003906 57.148438 113.105469 56.535156 112.175781 C 55.925781 111.246094 55.355469 110.289062 54.832031 109.308594 C 54.308594 108.328125 53.832031 107.324219 53.402344 106.296875 C 52.972656 105.269531 52.59375 104.226562 52.261719 103.164062 C 51.929688 102.105469 51.648438 101.03125 51.417969 99.941406 C 51.183594 98.855469 51.003906 97.757812 50.875 96.652344 C 50.746094 95.546875 50.667969 94.441406 50.644531 93.328125 C 50.617188 92.21875 50.644531 91.105469 50.722656 89.996094 C 50.800781 88.886719 50.929688 87.785156 51.113281 86.6875 C 51.292969 85.589844 51.527344 84.503906 51.808594 83.429688 C 52.089844 82.351562 52.425781 81.292969 52.804688 80.246094 C 53.1875 79.203125 53.617188 78.179688 54.09375 77.171875 C 54.574219 76.167969 55.097656 75.1875 55.664062 74.234375 C 56.234375 73.277344 56.847656 72.347656 57.503906 71.449219 C 58.160156 70.550781 58.855469 69.683594 59.59375 68.851562 C 60.328125 68.015625 61.101562 67.21875 61.914062 66.457031 C 62.726562 65.695312 63.570312 64.972656 64.449219 64.289062 C 65.328125 63.605469 66.238281 62.964844 67.175781 62.367188 C 68.113281 61.769531 69.078125 61.214844 70.070312 60.707031 C 71.058594 60.199219 72.070312 59.734375 73.105469 59.320312 C 74.140625 58.90625 75.191406 58.542969 76.257812 58.226562 C 77.324219 57.910156 78.40625 57.640625 79.5 57.425781 C 80.589844 57.210938 81.691406 57.046875 82.800781 56.933594 C 83.90625 56.820312 85.019531 56.757812 86.132812 56.746094 C 87.246094 56.738281 88.359375 56.777344 89.46875 56.871094 C 90.578125 56.964844 91.679688 57.109375 92.777344 57.308594 C 93.871094 57.503906 94.957031 57.75 96.03125 58.046875 C 97.105469 58.34375 98.160156 58.691406 99.203125 59.085938 C 100.242188 59.484375 101.261719 59.925781 102.261719 60.417969 C 103.261719 60.910156 104.238281 61.445312 105.1875 62.027344 C 106.136719 62.609375 107.054688 63.230469 107.945312 63.898438 L 116.136719 70.035156 L 124.332031 63.898438 C 125.222656 63.230469 126.140625 62.609375 127.089844 62.027344 C 128.039062 61.445312 129.015625 60.910156 130.015625 60.417969 C 131.015625 59.929688 132.035156 59.484375 133.074219 59.089844 C 134.117188 58.691406 135.171875 58.347656 136.246094 58.050781 C 137.320312 57.753906 138.402344 57.503906 139.5 57.308594 C 140.597656 57.113281 141.699219 56.96875 142.808594 56.875 C 143.917969 56.78125 145.03125 56.738281 146.144531 56.75 C 147.257812 56.761719 148.367188 56.820312 149.476562 56.933594 C 150.585938 57.050781 151.683594 57.214844 152.777344 57.429688 C 153.871094 57.644531 154.949219 57.914062 156.019531 58.230469 C 157.085938 58.546875 158.136719 58.910156 159.167969 59.324219 C 160.203125 59.738281 161.214844 60.203125 162.207031 60.710938 C 163.195312 61.21875 164.160156 61.773438 165.097656 62.371094 C 166.039062 62.96875 166.945312 63.609375 167.824219 64.292969 C 168.703125 64.976562 169.546875 65.699219 170.359375 66.460938 C 171.171875 67.222656 171.945312 68.019531 172.683594 68.855469 C 173.417969 69.6875 174.113281 70.554688 174.769531 71.453125 C 175.425781 72.351562 176.039062 73.28125 176.609375 74.234375 C 177.175781 75.191406 177.699219 76.171875 178.179688 77.175781 C 178.65625 78.179688 179.085938 79.207031 179.46875 80.25 C 179.847656 81.292969 180.179688 82.355469 180.464844 83.429688 C 180.746094 84.503906 180.980469 85.59375 181.160156 86.6875 C 181.339844 87.785156 181.472656 88.890625 181.550781 90 C 181.628906 91.109375 181.652344 92.21875 181.628906 93.332031 C 181.601562 94.441406 181.527344 95.550781 181.398438 96.65625 C 181.269531 97.757812 181.085938 98.855469 180.855469 99.941406 C 180.625 101.03125 180.34375 102.105469 180.011719 103.167969 C 179.679688 104.226562 179.300781 105.273438 178.871094 106.296875 C 178.441406 107.324219 177.964844 108.328125 177.441406 109.308594 C 176.917969 110.292969 176.351562 111.246094 175.738281 112.175781 C 175.125 113.105469 174.472656 114.003906 173.773438 114.871094 C 173.078125 115.738281 172.34375 116.570312 171.570312 117.371094 L 119.496094 171.140625 C 119.054688 171.59375 118.542969 171.945312 117.960938 172.191406 C 117.378906 172.4375 116.769531 172.5625 116.136719 172.5625 Z M 86.488281 66.125 C 85.195312 66.117188 83.910156 66.207031 82.628906 66.390625 C 81.347656 66.574219 80.089844 66.851562 78.847656 67.21875 C 77.609375 67.589844 76.402344 68.046875 75.230469 68.589844 C 74.058594 69.136719 72.933594 69.765625 71.855469 70.472656 C 70.773438 71.183594 69.75 71.96875 68.785156 72.832031 C 67.824219 73.691406 66.925781 74.617188 66.097656 75.609375 C 65.269531 76.597656 64.519531 77.644531 63.84375 78.746094 C 63.167969 79.847656 62.578125 80.996094 62.074219 82.183594 C 61.566406 83.371094 61.148438 84.589844 60.824219 85.839844 C 60.496094 87.089844 60.261719 88.355469 60.121094 89.636719 C 59.980469 90.921875 59.933594 92.207031 59.984375 93.5 C 60.03125 94.789062 60.175781 96.070312 60.410156 97.339844 C 60.648438 98.609375 60.976562 99.851562 61.394531 101.074219 C 61.816406 102.296875 62.324219 103.480469 62.917969 104.625 C 63.511719 105.773438 64.1875 106.871094 64.941406 107.917969 C 65.695312 108.96875 66.523438 109.953125 67.425781 110.882812 L 116.136719 161.183594 L 164.851562 110.882812 C 165.421875 110.289062 165.964844 109.675781 166.480469 109.035156 C 166.996094 108.390625 167.480469 107.726562 167.933594 107.042969 C 168.386719 106.355469 168.804688 105.648438 169.191406 104.921875 C 169.578125 104.199219 169.929688 103.457031 170.25 102.695312 C 170.566406 101.9375 170.847656 101.167969 171.09375 100.382812 C 171.339844 99.597656 171.546875 98.804688 171.71875 98 C 171.890625 97.195312 172.023438 96.386719 172.117188 95.570312 C 172.214844 94.753906 172.269531 93.933594 172.289062 93.113281 C 172.308594 92.289062 172.289062 91.46875 172.230469 90.648438 C 172.171875 89.828125 172.078125 89.011719 171.941406 88.203125 C 171.808594 87.390625 171.636719 86.589844 171.429688 85.792969 C 171.21875 85 170.972656 84.214844 170.691406 83.441406 C 170.410156 82.671875 170.089844 81.914062 169.738281 81.171875 C 169.386719 80.429688 169 79.703125 168.578125 78.996094 C 168.15625 78.289062 167.703125 77.605469 167.21875 76.941406 C 166.734375 76.277344 166.21875 75.636719 165.675781 75.019531 C 165.132812 74.402344 164.558594 73.8125 163.960938 73.25 C 163.359375 72.6875 162.734375 72.152344 162.085938 71.648438 C 161.433594 71.144531 160.761719 70.667969 160.070312 70.226562 C 159.375 69.785156 158.664062 69.375 157.929688 69 C 157.199219 68.625 156.449219 68.28125 155.6875 67.976562 C 154.921875 67.671875 154.144531 67.398438 153.355469 67.167969 C 152.566406 66.933594 151.769531 66.734375 150.960938 66.578125 C 150.152344 66.417969 149.339844 66.296875 148.519531 66.210938 C 147.703125 66.128906 146.882812 66.082031 146.058594 66.074219 C 145.234375 66.066406 144.414062 66.097656 143.59375 66.167969 C 142.773438 66.238281 141.957031 66.34375 141.148438 66.488281 C 140.335938 66.636719 139.535156 66.816406 138.742188 67.039062 C 137.949219 67.257812 137.167969 67.511719 136.398438 67.804688 C 135.628906 68.097656 134.875 68.425781 134.136719 68.789062 C 133.398438 69.152344 132.675781 69.550781 131.976562 69.980469 C 131.273438 70.410156 130.59375 70.871094 129.933594 71.363281 L 118.941406 79.601562 C 118.539062 79.902344 118.097656 80.136719 117.617188 80.296875 C 117.136719 80.457031 116.644531 80.535156 116.136719 80.535156 C 115.632812 80.535156 115.140625 80.457031 114.660156 80.296875 C 114.179688 80.136719 113.738281 79.902344 113.332031 79.601562 L 102.335938 71.363281 C 100.050781 69.65625 97.550781 68.355469 94.839844 67.457031 C 92.128906 66.5625 89.34375 66.117188 86.488281 66.125 Z M 86.488281 66.125 " fill-opacity="1" fill-rule="nonzero"/></g><path fill="#000000" d="M 111.464844 128.65625 C 110.171875 128.65625 109.070312 128.199219 108.160156 127.289062 L 94.136719 113.289062 C 93.925781 113.070312 93.738281 112.832031 93.574219 112.578125 C 93.410156 112.324219 93.269531 112.058594 93.15625 111.773438 C 93.046875 111.492188 92.960938 111.203125 92.90625 110.90625 C 92.847656 110.609375 92.820312 110.308594 92.824219 110.003906 C 92.828125 109.703125 92.859375 109.402344 92.921875 109.105469 C 92.980469 108.808594 93.070312 108.519531 93.1875 108.242188 C 93.304688 107.960938 93.449219 107.695312 93.617188 107.445312 C 93.789062 107.191406 93.980469 106.960938 94.195312 106.746094 C 94.410156 106.53125 94.640625 106.339844 94.894531 106.171875 C 95.144531 106.003906 95.410156 105.859375 95.691406 105.742188 C 95.972656 105.625 96.261719 105.535156 96.558594 105.476562 C 96.855469 105.414062 97.15625 105.382812 97.457031 105.378906 C 97.761719 105.375 98.0625 105.402344 98.359375 105.460938 C 98.660156 105.515625 98.949219 105.597656 99.230469 105.710938 C 99.511719 105.824219 99.78125 105.960938 100.035156 106.125 C 100.289062 106.289062 100.527344 106.476562 100.746094 106.6875 L 111.464844 117.390625 L 136.203125 92.6875 C 136.421875 92.476562 136.65625 92.289062 136.914062 92.125 C 137.167969 91.960938 137.4375 91.824219 137.71875 91.710938 C 138 91.597656 138.289062 91.515625 138.589844 91.457031 C 138.886719 91.402344 139.1875 91.375 139.492188 91.378906 C 139.792969 91.382812 140.09375 91.414062 140.390625 91.472656 C 140.6875 91.535156 140.976562 91.625 141.257812 91.742188 C 141.539062 91.859375 141.804688 92 142.054688 92.171875 C 142.308594 92.339844 142.539062 92.53125 142.753906 92.746094 C 142.96875 92.960938 143.160156 93.191406 143.332031 93.445312 C 143.5 93.695312 143.644531 93.960938 143.761719 94.242188 C 143.878906 94.519531 143.96875 94.808594 144.027344 95.105469 C 144.089844 95.402344 144.121094 95.703125 144.125 96.003906 C 144.125 96.308594 144.101562 96.609375 144.042969 96.90625 C 143.988281 97.203125 143.902344 97.492188 143.792969 97.773438 C 143.679688 98.054688 143.539062 98.324219 143.375 98.578125 C 143.210938 98.832031 143.023438 99.070312 142.8125 99.289062 L 114.769531 127.289062 C 113.855469 128.199219 112.753906 128.65625 111.464844 128.65625 Z M 111.464844 128.65625 " fill-opacity="1" fill-rule="nonzero"/></svg>