<svg xmlns="http://www.w3.org/2000/svg" xmlns:xlink="http://www.w3.org/1999/xlink" width="300" zoomAndPan="magnify" viewBox="0 0 224.87999 225" height="300" preserveAspectRatio="xMidYMid meet" version="1.0"><path fill="#000000" d="M 108.289062 70.835938 C 107.796875 69.996094 106.722656 69.710938 105.882812 70.191406 L 101.597656 72.621094 C 100.191406 71.527344 98.65625 70.652344 97.015625 70 L 97.015625 65.195312 C 97.015625 64.21875 96.21875 63.421875 95.242188 63.421875 L 84.855469 63.421875 C 83.878906 63.421875 83.082031 64.21875 83.082031 65.195312 L 83.082031 70 C 81.441406 70.652344 79.90625 71.527344 78.496094 72.621094 L 74.214844 70.191406 C 73.367188 69.710938 72.296875 69.996094 71.804688 70.835938 L 66.613281 79.671875 C 66.375 80.082031 66.308594 80.570312 66.429688 81.027344 C 66.554688 81.488281 66.855469 81.875 67.269531 82.109375 L 71.511719 84.519531 C 71.261719 86.253906 71.261719 87.953125 71.511719 89.691406 C 71.511719 89.691406 67.269531 92.097656 67.269531 92.097656 C 66.425781 92.554688 66.109375 93.71875 66.613281 94.535156 C 66.613281 94.535156 71.804688 103.371094 71.804688 103.371094 C 72.296875 104.210938 73.367188 104.492188 74.214844 104.015625 C 74.214844 104.015625 78.496094 101.585938 78.496094 101.585938 C 79.90625 102.679688 81.441406 103.558594 83.082031 104.207031 L 83.082031 109.011719 C 83.082031 109.988281 83.878906 110.785156 84.855469 110.785156 L 95.242188 110.785156 C 96.21875 110.785156 97.015625 109.988281 97.015625 109.011719 L 97.015625 104.207031 C 98.65625 103.558594 100.191406 102.679688 101.597656 101.585938 L 105.882812 104.015625 C 106.722656 104.492188 107.796875 104.210938 108.289062 103.371094 L 113.480469 94.535156 C 113.722656 94.128906 113.789062 93.640625 113.664062 93.179688 C 113.542969 92.722656 113.242188 92.332031 112.828125 92.097656 C 112.828125 92.097656 108.585938 89.691406 108.585938 89.691406 C 108.835938 87.960938 108.835938 86.246094 108.585938 84.519531 C 108.585938 84.519531 112.828125 82.109375 112.828125 82.109375 C 113.671875 81.652344 113.988281 80.488281 113.480469 79.671875 C 113.480469 79.671875 108.289062 70.835938 108.289062 70.835938 Z M 105.738281 82.054688 C 103.960938 83.160156 105.484375 85.46875 105.222656 87.101562 C 105.492188 88.738281 103.957031 91.046875 105.738281 92.152344 C 105.738281 92.152344 109.507812 94.292969 109.507812 94.292969 C 109.507812 94.292969 106.113281 100.070312 106.113281 100.070312 L 102.285156 97.898438 C 101.621094 97.527344 100.792969 97.609375 100.226562 98.117188 C 98.601562 99.5625 96.742188 100.621094 94.707031 101.265625 C 93.96875 101.496094 93.464844 102.183594 93.464844 102.957031 L 93.464844 107.238281 L 86.632812 107.238281 L 86.632812 102.957031 C 86.632812 102.183594 86.128906 101.496094 85.390625 101.265625 C 83.351562 100.621094 81.492188 99.5625 79.867188 98.117188 C 79.300781 97.609375 78.472656 97.527344 77.8125 97.898438 L 73.980469 100.070312 L 70.585938 94.292969 L 74.359375 92.152344 C 75.035156 91.769531 75.382812 90.992188 75.214844 90.234375 C 74.757812 88.128906 74.757812 86.078125 75.214844 83.972656 C 75.382812 83.214844 75.035156 82.4375 74.359375 82.054688 L 70.585938 79.914062 C 70.585938 79.914062 73.980469 74.136719 73.980469 74.136719 L 77.8125 76.308594 C 78.472656 76.683594 79.300781 76.597656 79.867188 76.09375 C 81.492188 74.648438 83.351562 73.585938 85.394531 72.941406 C 86.128906 72.707031 86.632812 72.023438 86.632812 71.25 L 86.632812 66.96875 L 93.464844 66.96875 L 93.464844 71.25 C 93.464844 72.023438 93.96875 72.707031 94.703125 72.941406 C 96.742188 73.585938 98.601562 74.648438 100.226562 76.09375 C 100.792969 76.597656 101.621094 76.683594 102.285156 76.308594 C 102.285156 76.308594 106.113281 74.136719 106.113281 74.136719 C 106.113281 74.136719 109.507812 79.914062 109.507812 79.914062 Z M 105.738281 82.054688 " fill-opacity="1" fill-rule="nonzero"/><path fill="#000000" d="M 90.046875 77.4375 C 77.140625 77.847656 77.144531 96.363281 90.046875 96.769531 C 102.957031 96.359375 102.953125 77.84375 90.046875 77.4375 Z M 90.046875 93.222656 C 81.851562 93.007812 81.851562 81.199219 90.046875 80.984375 C 98.246094 81.199219 98.246094 93.011719 90.046875 93.222656 Z M 90.046875 93.222656 " fill-opacity="1" fill-rule="nonzero"/><path fill="#000000" d="M 107.203125 153.710938 C 106.644531 154.128906 105.960938 154.355469 105.28125 154.355469 L 70.488281 154.355469 C 68.6875 154.355469 67.222656 152.902344 67.222656 151.117188 C 66.953125 148.941406 68.132812 146.835938 70.511719 146.816406 C 70.511719 146.816406 91.742188 146.816406 91.742188 146.816406 C 92.722656 146.816406 93.515625 146.019531 93.515625 145.042969 C 93.515625 144.0625 92.722656 143.269531 91.742188 143.269531 L 70.511719 143.269531 C 68.167969 143.25 66.949219 141.171875 67.222656 139.015625 C 67.222656 137.214844 68.6875 135.75 70.488281 135.75 L 83.765625 135.75 C 86.085938 135.742188 86.089844 132.214844 83.765625 132.207031 C 83.765625 132.207031 72.265625 132.207031 72.265625 132.207031 C 72.265625 132.207031 72.265625 127.214844 72.265625 127.214844 C 72.265625 119.367188 69.167969 112.082031 63.769531 107.222656 C 40.199219 86.136719 55.324219 47.691406 86.777344 46.695312 C 104.214844 46.167969 119.351562 57.863281 122.808594 74.457031 C 123.328125 76.757812 126.726562 76 126.285156 73.734375 C 115.789062 28.960938 50.316406 35.414062 48.667969 81.320312 C 48.597656 92.128906 53.238281 102.53125 61.394531 109.859375 C 66.046875 114.042969 68.714844 120.371094 68.714844 127.214844 L 68.714844 132.46875 C 65.421875 133.3125 63.335938 136.574219 63.671875 140.007812 C 63.671875 142.007812 64.5625 143.792969 65.949219 145.042969 C 64.25 146.488281 63.492188 148.828125 63.671875 151.117188 C 63.671875 154.859375 66.730469 157.902344 70.488281 157.902344 L 74.738281 157.902344 L 75.96875 164.058594 C 77.085938 169.636719 82.101562 173.6875 87.894531 173.6875 C 93.683594 173.6875 98.699219 169.636719 99.816406 164.058594 L 101.046875 157.902344 C 103.5 157.796875 107.300781 158.382812 109.320312 156.558594 C 111.167969 155.152344 109.082031 152.347656 107.203125 153.710938 Z M 96.335938 163.363281 C 94.492188 172.3125 81.292969 172.308594 79.449219 163.363281 C 79.449219 163.363281 78.359375 157.910156 78.359375 157.910156 L 97.425781 157.910156 Z M 96.335938 163.363281 " fill-opacity="1" fill-rule="nonzero"/><path fill="#000000" d="M 92.757812 113.152344 C 91.6875 113.089844 90.964844 113.898438 90.9375 114.878906 C 90.726562 123.253906 93.878906 131.105469 99.8125 136.984375 C 118.726562 155.902344 151.828125 142.414062 151.738281 115.609375 C 152.179688 96.195312 132.320312 81.121094 113.640625 86.328125 C 111.394531 86.933594 112.277344 90.324219 114.527344 89.761719 C 123.734375 87.382812 133.621094 90.039062 140.332031 96.699219 C 150.730469 106.644531 150.746094 124.535156 140.332031 134.472656 C 129.855469 144.894531 112.800781 144.898438 102.316406 134.46875 C 97.082031 129.28125 94.300781 122.355469 94.488281 114.96875 C 94.511719 113.992188 93.738281 113.175781 92.757812 113.152344 Z M 92.757812 113.152344 " fill-opacity="1" fill-rule="nonzero"/><path fill="#000000" d="M 180.222656 165.585938 L 151.90625 137.425781 C 162.644531 122.613281 161.089844 102.113281 147.972656 89.082031 C 140.136719 81.300781 129.347656 77.347656 118.320312 78.214844 C 117.34375 78.292969 116.617188 79.148438 116.695312 80.125 C 116.769531 81.101562 117.640625 81.8125 118.605469 81.75 C 128.570312 80.953125 138.371094 84.546875 145.46875 91.597656 C 160.542969 106.117188 158.09375 132.054688 140.628906 143.582031 C 118.21875 159.167969 86.433594 142.394531 87.199219 114.960938 C 87.230469 112.664062 83.785156 112.550781 83.648438 114.886719 C 82.816406 144.496094 116.527344 163.214844 141.390625 147.292969 C 141.390625 147.292969 170.011719 175.765625 170.011719 175.765625 C 171.425781 177.167969 173.28125 177.871094 175.132812 177.871094 C 181.34375 178.046875 184.835938 169.921875 180.222656 165.585938 Z M 177.71875 173.269531 C 176.289062 174.6875 173.957031 174.683594 172.519531 173.25 L 144.347656 145.230469 C 145.613281 144.265625 146.839844 143.246094 147.976562 142.109375 C 148.632812 141.453125 149.203125 140.84375 149.722656 140.253906 L 177.71875 168.097656 C 179.152344 169.46875 179.152344 171.898438 177.71875 173.269531 Z M 177.71875 173.269531 " fill-opacity="1" fill-rule="nonzero"/><path fill="#000000" d="M 111.949219 115.09375 L 105.609375 115.09375 C 104.628906 115.09375 103.835938 115.886719 103.835938 116.867188 L 103.835938 124.652344 L 102.242188 124.652344 C 99.933594 124.660156 99.910156 128.191406 102.242188 128.199219 C 111.3125 128.199219 121.617188 128.199219 130.695312 128.199219 C 132.847656 128.175781 138.304688 128.21875 140.402344 128.199219 C 142.714844 128.1875 142.734375 124.667969 140.402344 124.652344 C 140.402344 124.652344 138.8125 124.652344 138.8125 124.652344 L 138.8125 104.757812 C 138.8125 103.777344 138.015625 102.984375 137.035156 102.984375 L 130.695312 102.984375 C 129.714844 102.984375 128.917969 103.777344 128.917969 104.757812 L 128.917969 124.652344 L 126.269531 124.652344 L 126.269531 110.707031 C 126.269531 109.726562 125.472656 108.933594 124.492188 108.933594 L 118.152344 108.933594 C 117.171875 108.933594 116.378906 109.726562 116.378906 110.707031 L 116.378906 124.652344 L 113.726562 124.652344 L 113.726562 116.867188 C 113.726562 115.886719 112.929688 115.09375 111.949219 115.09375 Z M 107.386719 124.652344 L 107.386719 118.640625 L 110.175781 118.640625 L 110.175781 124.652344 Z M 132.46875 106.53125 L 135.261719 106.53125 L 135.261719 124.652344 L 132.46875 124.652344 Z M 119.929688 112.480469 L 122.71875 112.480469 L 122.71875 124.652344 L 119.929688 124.652344 Z M 119.929688 112.480469 " fill-opacity="1" fill-rule="nonzero"/></svg>