<svg xmlns="http://www.w3.org/2000/svg" xmlns:xlink="http://www.w3.org/1999/xlink" width="300" zoomAndPan="magnify" viewBox="0 0 224.87999 225" height="300" preserveAspectRatio="xMidYMid meet" version="1.0"><defs><clipPath id="52d2b3d4aa"><path d="M 26.117188 62 L 195.527344 62 L 195.527344 173.214844 L 26.117188 173.214844 Z M 26.117188 62 " clip-rule="nonzero"/></clipPath></defs><g clip-path="url(#52d2b3d4aa)"><path fill="#000000" d="M 98.082031 62.675781 C 102.339844 61.5625 107.855469 63.125 110.253906 63.550781 C 113.671875 64.554688 121.972656 63.988281 123.203125 64.183594 C 122.707031 64.179688 116.355469 64.101562 115.804688 64.316406 C 116.785156 64.664062 117.328125 64.519531 118.285156 64.546875 C 127.210938 64.464844 120.746094 64.222656 139.804688 68.214844 C 140.625 68.390625 141.46875 68.453125 142.265625 68.714844 C 142.265625 68.714844 148.132812 72.871094 148.132812 72.871094 C 150.636719 73.699219 157.660156 75.636719 157.78125 75.652344 C 157.992188 76.011719 157.75 75.730469 160.410156 78.386719 C 160.773438 78.761719 160.910156 79.390625 161.457031 79.550781 C 166.84375 81.839844 163.1875 79.671875 169.789062 84.117188 C 169.847656 84.15625 172.527344 85.921875 172.597656 85.9375 C 172.617188 86.003906 176.21875 90.4375 177.132812 91.503906 C 177.15625 91.570312 179.09375 96.375 179.472656 96.859375 C 183.097656 99.449219 182.675781 97.71875 186.597656 103.089844 C 187.890625 108.601562 187.175781 107.488281 189.265625 110.882812 C 189.527344 111.234375 189.613281 111.675781 189.726562 112.089844 C 191.59375 117.902344 191.097656 116.28125 191.175781 117.578125 C 195.207031 123.460938 195.097656 135.871094 195.421875 136.695312 C 195.53125 137.875 194.234375 146.5 194.214844 146.566406 C 192.542969 152.265625 192.304688 151.746094 193.273438 156.070312 C 193.378906 156.386719 192.765625 158.925781 192.625 159.789062 C 191.40625 162.738281 189.441406 164.886719 185.167969 170.691406 C 185.167969 170.691406 181.214844 172.488281 181.214844 172.488281 C 181.214844 172.488281 176.042969 173.171875 176.042969 173.171875 C 175.722656 172.972656 174.003906 172.265625 173.320312 171.8125 C 171.914062 171.539062 170.5 171.304688 169.089844 171.050781 C 166.289062 170.800781 163.371094 168.382812 161.832031 168.207031 C 159.265625 167.820312 156.691406 167.558594 154.121094 167.214844 C 153.917969 167.121094 149.898438 165.042969 149.890625 165.039062 C 149.019531 163.726562 148.132812 162.425781 147.277344 161.109375 C 146.339844 161.484375 144.316406 160.917969 143.644531 160.921875 C 143.152344 160.566406 142.671875 160.195312 142.171875 159.851562 C 134.65625 163.1875 130.589844 162.300781 128.707031 162.640625 C 124.296875 164.828125 126.71875 164.421875 119.5 164.363281 C 119.171875 164.257812 118.828125 164.289062 118.492188 164.261719 C 118.175781 164.144531 116.785156 164.097656 116.445312 164.097656 C 116.058594 164.296875 114.027344 165.777344 113.980469 165.820312 C 113.832031 165.878906 111.265625 166.417969 111.128906 166.441406 C 110.421875 166.339844 107.148438 166.515625 104.242188 165.140625 C 104.058594 165.039062 103.890625 165.234375 103.730469 165.300781 C 103.074219 165.757812 102.265625 165.957031 101.644531 166.46875 C 101.636719 166.472656 98.496094 167.570312 98.425781 167.605469 C 97.230469 167.628906 96.03125 167.597656 94.835938 167.617188 C 93.589844 168.292969 87.679688 169.738281 82.417969 168.613281 C 74.226562 166.492188 77.335938 166.886719 72.789062 165.078125 C 72.5625 164.910156 69.652344 162.257812 69.578125 162.171875 C 68.050781 160.433594 69.828125 163.410156 66.21875 157.421875 C 65.691406 157.421875 65.160156 157.421875 64.632812 157.421875 C 64.632812 157.421875 62.863281 155.539062 62.863281 155.539062 C 62.605469 154.78125 62.453125 153.992188 62.195312 153.238281 C 62.167969 152.007812 62.191406 150.777344 62.183594 149.550781 C 61.882812 149.542969 59.558594 149.390625 59.316406 149.261719 C 43.277344 141.835938 42.023438 145.011719 34.179688 141.214844 C 33.226562 140.683594 32.734375 140.808594 32.164062 140.097656 C 30.003906 136.964844 30.570312 139.933594 29.359375 134.722656 C 29.328125 131.078125 29.410156 131.054688 29.296875 130.902344 C 27.898438 128.6875 27.96875 128.269531 27.257812 127.277344 C 27.085938 126.648438 26.117188 122.492188 26.738281 120.808594 C 26.773438 119.390625 26.90625 119.519531 30.347656 112.832031 C 30.492188 112.386719 30.210938 111.972656 30.117188 111.550781 C 29.425781 107.863281 29.652344 108.097656 30.410156 104.949219 C 30.410156 104.949219 32.773438 101.179688 32.773438 101.179688 C 33.082031 100.992188 36 98.226562 36.066406 98.175781 C 36.421875 98.03125 36.789062 97.90625 37.148438 97.773438 C 37.171875 95.5625 36.945312 96.25 37.824219 92.617188 C 39.421875 90.914062 38.402344 90.910156 46.339844 85.558594 C 46.664062 85.035156 47.617188 84.441406 48.117188 83.902344 C 48.183594 83.859375 52.066406 80.410156 52.972656 80.105469 C 54.117188 79.933594 58.277344 78.609375 58.945312 78.507812 C 59.320312 78.480469 59.707031 78.550781 60.074219 78.429688 C 60.652344 78.429688 61.210938 78.21875 61.789062 78.21875 C 62.429688 77.390625 63.226562 76.714844 64.269531 75.394531 C 69.667969 72.394531 65.773438 73.363281 71.773438 72.335938 C 72.3125 72.203125 72.882812 72.121094 73.425781 72.277344 C 73.425781 72.277344 75.144531 72.40625 75.144531 72.40625 C 75.71875 72.589844 76.320312 72.417969 76.90625 72.386719 C 77.25 71.738281 78.792969 70.65625 79.464844 70.007812 C 85.507812 67.035156 84.332031 67.519531 91.75 67.578125 C 92.007812 67.6875 92.269531 67.800781 92.542969 67.878906 C 92.761719 67.375 95.601562 63.355469 95.90625 63.28125 C 96.628906 63.070312 97.375 62.945312 98.082031 62.675781 M 100.285156 63.578125 C 99.792969 63.6875 99.300781 63.800781 98.816406 63.941406 C 98.515625 63.921875 98.21875 64.007812 97.957031 64.140625 C 97.277344 64.273438 94.648438 68.089844 94.589844 68.4375 C 94.519531 68.328125 94.261719 68.308594 94.234375 68.453125 C 94.292969 68.542969 94.46875 68.632812 94.566406 68.546875 C 95.03125 68.753906 95.523438 68.886719 95.992188 69.097656 C 96.292969 69.210938 96.632812 69.40625 96.953125 69.238281 C 96.953125 69.238281 101.183594 67.695312 102.082031 67.316406 C 102.148438 67.285156 106.65625 66.429688 111.996094 67.539062 C 113.027344 67.609375 116.21875 67.484375 117.566406 67.617188 C 117.375 67.695312 117.183594 67.757812 116.992188 67.824219 C 116.660156 67.824219 116.335938 67.894531 116.019531 67.980469 C 110.023438 69.640625 109.953125 68.929688 107.289062 68.871094 C 106.730469 68.582031 106.085938 68.824219 105.492188 68.84375 C 102.019531 68.800781 101.445312 68.984375 97.046875 71.261719 C 97.046875 71.261719 91.53125 69.25 91.429688 69.226562 C 90.996094 69.019531 85.410156 69.066406 85.148438 69.234375 C 84.398438 69.425781 83.742188 69.839844 83.046875 70.164062 C 81.589844 70.835938 81.890625 70.171875 80.519531 71.625 C 80.519531 71.625 78.386719 73.667969 78.386719 73.667969 C 78.386719 73.667969 72.339844 73.976562 70.945312 74.105469 C 66.714844 76.71875 67.933594 75.773438 65.40625 78.015625 C 64.875 78.628906 64.074219 78.992188 63.699219 79.738281 C 61.894531 83.261719 62.464844 82.273438 61.445312 82.652344 C 61.179688 82.632812 60.898438 82.609375 60.664062 82.75 C 60.597656 82.75 57.695312 83.144531 57.59375 83.183594 C 52.707031 86.488281 49.554688 88.34375 47.519531 92.929688 C 47.71875 93.039062 47.917969 93.148438 48.117188 93.257812 C 43.390625 100.574219 38.371094 99.925781 37.683594 105.144531 C 37.519531 105.425781 37.507812 105.765625 37.6875 106.042969 C 37.78125 106.476562 37.902344 106.910156 38.050781 107.328125 C 38.050781 107.328125 42.511719 107.90625 42.511719 107.90625 C 42.683594 106.730469 42.773438 106.984375 42.816406 106.378906 C 42.929688 106.046875 42.972656 105.671875 43.195312 105.386719 C 43.535156 104.988281 45.269531 102.105469 45.585938 101.75 C 45.605469 101.726562 48.539062 99.382812 48.628906 99.332031 C 49.015625 99.160156 49.449219 99.125 49.855469 98.996094 C 50.070312 99 50.289062 98.996094 50.503906 98.996094 C 50.746094 98.136719 50.566406 96.132812 51.164062 94.898438 C 51.675781 94.417969 52.226562 93.394531 53.464844 91.839844 C 55.023438 90.621094 57.007812 88.632812 58.046875 87.992188 C 58.113281 87.960938 63.464844 85.429688 64.0625 85.226562 C 59.824219 88.707031 53.832031 91.175781 52.828125 96.53125 L 52.835938 96.457031 C 52.761719 97.011719 52.808594 97.574219 52.695312 98.128906 L 52.785156 98.128906 C 53.183594 98.335938 53.027344 98.183594 56.867188 98.777344 L 56.792969 98.777344 C 57.28125 98.828125 57.777344 98.867188 58.269531 98.867188 C 59.285156 97.601562 59.992188 97 60.085938 93.21875 C 60.324219 94.28125 60.28125 94.59375 60.503906 95.207031 C 60.589844 96.953125 61.035156 94.628906 60.4375 99.683594 C 65.191406 103.019531 58.667969 100.292969 70.160156 100.382812 C 70.160156 100.382812 71.75 100.664062 75.246094 101.0625 C 76.929688 97.632812 76.457031 97.707031 77 96.4375 C 77.011719 96.5 77 99.742188 77 99.808594 C 76.992188 101.121094 78.929688 104.734375 79.136719 105.550781 C 79.210938 106.117188 79.214844 106.707031 79.421875 107.25 C 79.746094 112.421875 82.871094 115.917969 83.167969 116.375 C 77.644531 113.277344 79.167969 104.828125 75.058594 103.25 C 72.539062 102.398438 75.390625 102.503906 65.710938 102.519531 C 64.96875 102.5 64.425781 103.171875 62.742188 104.167969 C 62.277344 104.414062 60.363281 109.503906 60.351562 109.648438 C 59.742188 114.480469 59.660156 113.46875 60.019531 114.289062 C 60.308594 114.820312 60.402344 115.457031 60.792969 115.933594 C 60.636719 116.082031 60.910156 116.355469 61.0625 116.203125 C 62.261719 117.445312 67.878906 118.859375 70.625 122.238281 C 66.574219 121.226562 61.035156 118.613281 60.957031 118.539062 C 58.214844 115.953125 59.433594 117.742188 58.207031 115.5625 C 58.144531 115.1875 57.507812 113.519531 57.304688 113.125 C 57.296875 113.003906 57.289062 112.890625 57.28125 112.773438 C 55.414062 112.742188 52.882812 112.761719 52.882812 112.761719 C 53.3125 112.523438 56.34375 111.425781 57.203125 111.21875 C 57.203125 111.21875 58.929688 105.851562 58.929688 105.851562 C 59.074219 105.652344 59.136719 105.414062 59.148438 105.175781 C 59.179688 105.109375 60.105469 103.449219 60.335938 103.136719 C 59.242188 101.859375 59.183594 101.515625 58.820312 101.417969 C 55.34375 100.386719 55.152344 99.660156 52.074219 100.429688 C 51.683594 100.421875 50.324219 100.585938 49.835938 100.816406 C 48.214844 102.304688 45.988281 104.167969 45.871094 104.539062 C 45.316406 106.304688 44.027344 109.285156 43.640625 110.800781 C 43.414062 111.171875 43.472656 115.464844 43.628906 115.78125 C 43.816406 116.867188 44.191406 117.917969 44.46875 118.984375 C 44.570312 119.503906 45.074219 119.75 45.472656 120.019531 C 46.113281 120.414062 46.675781 120.925781 47.300781 121.339844 C 49.226562 121.574219 50.027344 121.222656 51.941406 120.660156 C 55.09375 130.214844 54.148438 126.902344 56.859375 131.25 C 61.035156 133.847656 69.226562 135.320312 71.253906 130.820312 C 71.300781 130.4375 71.378906 129.945312 71.058594 129.660156 C 69.347656 127.925781 69.617188 127.457031 63.890625 126.179688 C 63.46875 126.042969 63.496094 126.117188 60.976562 126.089844 C 60.59375 126.078125 60.476562 126.1875 59.21875 126.484375 C 58.667969 126.617188 58.105469 126.65625 57.550781 126.753906 C 58.117188 126.453125 58.519531 125.902344 59.105469 125.640625 C 63.273438 124.511719 64.25 125.1875 66.636719 125.179688 C 69.238281 125.238281 74.652344 130.128906 75.503906 130.203125 C 75.980469 130.398438 77.605469 130.492188 77.671875 130.492188 C 77.816406 130.550781 77.984375 130.566406 78.128906 130.488281 C 80.132812 130.308594 79.753906 130.21875 80.339844 129.058594 C 80.496094 128.800781 80.359375 128.503906 80.292969 128.246094 C 80.347656 127.335938 79.289062 126.710938 78.832031 126.0625 C 72.464844 118.839844 74.417969 121.21875 73.558594 119.566406 C 67.421875 107.433594 70.773438 113.191406 69.472656 110.035156 C 69.40625 109.902344 69.335938 109.800781 67.09375 108.792969 C 68.050781 108.828125 68.910156 109.324219 69.851562 109.421875 C 70.554688 108.5625 71.050781 106.65625 71.761719 105.925781 C 71.425781 109 70.855469 110.59375 72.832031 114.902344 C 72.886719 115.269531 73.019531 115.625 73.214844 115.945312 C 73.589844 118.070312 74.511719 118.621094 76.558594 121.667969 C 76.75 121.9375 80.882812 125.25 80.9375 125.277344 C 86.453125 125.863281 82.992188 125.671875 85.898438 125.078125 C 86.132812 125.007812 86.410156 125.019531 86.589844 124.832031 C 87.667969 123.800781 87.523438 123.855469 87.515625 122.78125 C 87.285156 120.5625 87.980469 122.222656 86.507812 116.933594 C 86.4375 116.445312 87 114.367188 87.15625 112.96875 C 87.558594 112.375 90.390625 107.972656 90.683594 107.445312 C 91.953125 103.242188 92.96875 99.285156 89.167969 97.121094 C 86.332031 95.792969 87.460938 95.84375 82.980469 95.902344 C 81.703125 93.695312 79.144531 90.675781 79.078125 90.609375 C 78.789062 90.535156 75.605469 89.984375 74.945312 90.417969 C 71.953125 92.472656 72.636719 91.214844 71.769531 94.007812 C 71.609375 94.492188 71.441406 94.972656 71.324219 95.46875 C 71.1875 94.667969 71.609375 92.304688 71.566406 91.652344 C 71.640625 91.4375 71.660156 91.179688 71.847656 91.027344 C 72.597656 90.378906 74.144531 89.335938 74.601562 88.765625 C 75.386719 88.566406 77.121094 89.160156 78.320312 89.179688 C 78.753906 89.320312 79.21875 89.285156 79.660156 89.394531 C 80.25 89.742188 80.71875 90.246094 81.234375 90.683594 C 84.347656 92.984375 81.070312 92.558594 91.59375 95.722656 C 92.230469 95.929688 92.210938 96.355469 93.214844 97.101562 C 94.679688 95.335938 96.925781 92.132812 100.972656 92.097656 C 100.769531 91.703125 101.054688 91.261719 101.058594 90.847656 C 101.242188 90.332031 101.347656 89.789062 101.425781 89.246094 C 101.585938 88.878906 101.707031 88.5 101.878906 88.136719 C 104.984375 82.5625 102.683594 85.496094 105.089844 82.828125 C 106.09375 81.855469 107.035156 80.820312 108.089844 79.898438 C 104.167969 85.628906 104.265625 86.851562 102.921875 91.996094 C 103.347656 91.945312 103.777344 91.96875 104.207031 91.957031 C 103.75 92.089844 103.296875 92.238281 102.832031 92.339844 C 102.8125 92.441406 102.796875 92.542969 102.78125 92.644531 C 102.648438 92.625 102.515625 92.601562 102.386719 92.589844 C 102.390625 92.398438 101.9375 92.382812 101.914062 92.558594 C 101.738281 92.550781 101.5625 92.582031 101.402344 92.644531 C 100.824219 92.695312 98.921875 93.195312 98.429688 93.410156 C 95.800781 95.550781 95.785156 96.640625 94.03125 99.28125 C 93.933594 99.429688 93.964844 99.289062 93.964844 102.867188 C 93.984375 103.332031 92.972656 106.046875 92.851562 106.359375 C 91.949219 108.566406 93.613281 105.710938 89.925781 110.9375 C 89.660156 111.324219 89.277344 111.632812 89.125 112.085938 C 88.855469 112.761719 88.398438 113.367188 88.277344 114.09375 C 88.273438 114.160156 88.175781 117.261719 88.402344 117.6875 C 88.820312 120.386719 89.140625 120.503906 89.5625 121.089844 C 89.855469 121.414062 90.042969 121.839844 90.410156 122.089844 C 92.503906 122.242188 92.546875 122.023438 92.78125 121.761719 C 93.082031 121.410156 93.441406 121.117188 93.714844 120.742188 C 94.261719 120.046875 95.058594 118.542969 95.375 118.234375 C 95.441406 118.171875 97.71875 116.464844 98.128906 116.261719 C 102.183594 114.238281 101.285156 113.09375 103.664062 108.082031 C 105.632812 104.402344 105.648438 102.445312 110.828125 97.09375 C 110.515625 97.875 109.929688 98.503906 109.570312 99.257812 C 109.15625 99.707031 106.6875 103.996094 106.269531 104.480469 C 105.148438 107.050781 103.71875 113.753906 100.609375 116.890625 C 99.457031 117.417969 98.304688 117.957031 97.183594 118.558594 C 97.183594 118.558594 96.160156 120.226562 96.160156 120.226562 L 96.160156 120.140625 C 96.105469 120.757812 96.117188 121.378906 96.152344 121.996094 L 96.152344 121.914062 C 96.324219 122.117188 96.527344 122.300781 96.710938 122.496094 C 100.199219 122.261719 95.511719 123.152344 104.15625 120.523438 C 105.246094 120.207031 108.984375 117.945312 110.050781 117.515625 C 110.0625 117.503906 112.238281 115.109375 112.328125 114.972656 C 112.421875 114.839844 114.464844 111.070312 114.785156 110.785156 C 114.371094 112.136719 112.40625 117.527344 112.40625 117.527344 L 112.378906 117.441406 C 112.390625 118.089844 111.636719 117.796875 116.230469 118.433594 C 116.308594 118.390625 116.382812 118.339844 116.453125 118.285156 C 117.558594 116.875 119.691406 115.964844 120.390625 114.320312 C 123.03125 110.136719 124.898438 104.441406 125.722656 99.617188 C 125.785156 99.4375 127.691406 97.1875 128.125 96.757812 C 129.648438 95.945312 137.585938 91.6875 138.707031 90.378906 C 140.84375 86.902344 140.058594 84.601562 140.445312 83.519531 C 140.429688 83.488281 140.394531 83.425781 140.378906 83.390625 C 140.183594 82.132812 140.21875 81.027344 140.058594 80.515625 C 140.070312 80.441406 140.089844 80.285156 140.101562 80.210938 C 140.355469 80.789062 141.457031 86.648438 141.472656 86.714844 C 141.617188 86.675781 148.128906 86.03125 149.46875 86.351562 C 149.46875 86.351562 155.023438 86.828125 155.023438 86.828125 C 155.023438 87.015625 155.375 86.976562 155.507812 86.921875 C 155.664062 87.011719 159.511719 87.96875 159.578125 87.980469 L 159.566406 88.054688 C 159.609375 88.050781 159.691406 88.042969 159.734375 88.042969 C 159.773438 83.464844 158.441406 82.125 158.277344 80.582031 C 158.292969 80.601562 160.089844 83.394531 160.921875 84.554688 C 160.980469 85.484375 161.546875 87.777344 161.667969 88.0625 C 163.636719 90.035156 165.367188 91.390625 165.597656 91.796875 C 165.539062 91.890625 165.632812 92.015625 165.699219 92.085938 C 165.796875 92.085938 165.859375 91.925781 165.824219 91.84375 L 165.890625 91.863281 C 166.15625 91.253906 166.628906 90.714844 166.773438 90.0625 C 166.972656 90.039062 166.898438 89.648438 166.871094 89.492188 C 167.019531 89.0625 167.070312 88.589844 167.144531 88.140625 L 167.25 88.136719 C 167.242188 87.394531 167.265625 86.652344 167.242188 85.914062 L 167.261719 85.847656 C 167.289062 85.976562 168.476562 89.039062 168.613281 89.363281 C 168.679688 89.398438 171.246094 90.207031 171.527344 90.160156 C 171.503906 90.332031 171.824219 90.335938 171.921875 90.25 C 171.921875 90.25 172.386719 90.382812 174.363281 91.414062 C 174.566406 91.511719 174.765625 91.660156 175.003906 91.636719 C 170.945312 86.058594 170.414062 85.773438 161.914062 80.769531 C 159.542969 80.363281 160.804688 79.601562 153.378906 79.332031 C 153.519531 79.273438 153.667969 79.226562 153.8125 79.171875 C 154.234375 79.148438 157.042969 78.859375 158.105469 78.566406 C 158.261719 78.617188 158.65625 78.691406 158.703125 78.496094 C 159.429688 78.695312 159.699219 78.992188 160.628906 79.242188 C 160.628906 79.242188 159.191406 78.0625 158.359375 77.289062 C 157.550781 76.726562 157.320312 75.917969 155.289062 75.90625 L 155.285156 75.832031 C 154.726562 75.8125 154.191406 75.644531 153.636719 75.605469 C 153.449219 75.511719 153.238281 75.535156 153.042969 75.546875 C 153.03125 75.367188 152.6875 75.40625 152.5625 75.460938 C 152.53125 75.433594 152.46875 75.382812 152.4375 75.355469 C 152.273438 75.355469 152.109375 75.359375 151.949219 75.359375 L 151.945312 75.273438 C 150.644531 75.191406 149.375 74.714844 148.058594 74.804688 C 147.414062 74.964844 143.699219 75.601562 142.859375 75.640625 L 142.855469 75.726562 C 142.664062 75.730469 142.460938 75.707031 142.285156 75.792969 C 141.582031 75.835938 139.535156 76.199219 139.519531 76.199219 L 139.519531 76.289062 C 139.453125 76.292969 134.277344 78.386719 129.585938 81.730469 C 129.519531 81.789062 128 85.175781 127.761719 85.835938 C 127.617188 86.304688 127.046875 86.425781 126.839844 86.839844 C 126.445312 87.042969 124.601562 88.503906 124.3125 88.902344 C 123.585938 89.300781 119.554688 91.90625 119.554688 91.90625 C 119.488281 91.9375 114.347656 94.621094 114.128906 94.816406 C 113.925781 94.867188 113.730469 94.933594 113.53125 94.984375 C 114.246094 94.359375 119.949219 90.164062 120.761719 89.589844 C 123.5625 87.425781 120.84375 89.941406 126.660156 84.179688 C 126.816406 84.023438 126.96875 83.851562 127.035156 83.636719 C 128.253906 80.386719 128.328125 82.199219 128.730469 77.738281 C 128.925781 78.535156 129.03125 79.355469 129.175781 80.164062 C 130.054688 79.71875 132.824219 77.417969 135.089844 75.671875 C 135.503906 75.609375 137.117188 75.128906 137.203125 75.097656 C 137.46875 75.074219 137.734375 75.015625 137.972656 74.894531 C 138.214844 74.859375 138.457031 74.816406 138.6875 74.726562 C 138.949219 74.703125 139.214844 74.644531 139.457031 74.527344 C 139.667969 74.5 139.878906 74.445312 140.074219 74.359375 C 140.339844 74.335938 140.605469 74.273438 140.847656 74.15625 C 142.027344 73.941406 143.175781 73.570312 144.324219 73.234375 C 144.597656 73.40625 144.445312 72.871094 144.265625 73.101562 C 144.140625 72.816406 143.890625 72.621094 143.667969 72.414062 C 137.347656 67.28125 145.984375 72.148438 125.652344 66.890625 C 124.585938 66.6875 123.558594 66.332031 122.488281 66.171875 C 122.167969 66.03125 120.589844 65.648438 120.050781 65.601562 C 119.839844 65.515625 115.441406 65.738281 115.117188 65.78125 C 109.1875 66.53125 109.609375 65.027344 106.511719 64.328125 C 105.96875 64.035156 101.386719 63.570312 101.320312 63.5625 C 100.988281 63.417969 100.625 63.511719 100.285156 63.578125 M 93.640625 68.230469 C 93.660156 68.527344 93.929688 68.089844 93.640625 68.230469 M 93.894531 68.324219 C 93.910156 68.628906 94.171875 68.183594 93.894531 68.324219 M 160.683594 79.261719 C 160.742188 79.320312 160.742188 79.320312 160.683594 79.261719 M 55.851562 81.347656 C 54.164062 82.152344 52.523438 83.066406 50.800781 83.804688 C 50.65625 83.863281 41.839844 91.5625 41.773438 91.625 C 41.582031 91.710938 41.425781 91.855469 41.300781 92.023438 C 39.867188 92.980469 40.046875 92.980469 39.636719 93.867188 C 39.082031 95.292969 38.71875 94.894531 38.949219 97.128906 C 45.855469 94.972656 44.714844 95.640625 46.070312 92.792969 C 47.316406 89.714844 50.796875 85.597656 50.863281 85.539062 C 54.929688 82.789062 55.878906 82.582031 58.957031 81.132812 C 56.472656 81.007812 56.273438 81.171875 55.851562 81.347656 M 148.402344 87.464844 C 147.394531 87.558594 146.398438 87.730469 145.386719 87.789062 C 145.03125 87.910156 144.628906 87.769531 144.300781 87.945312 C 142.683594 87.945312 142.804688 88.042969 140.492188 90.867188 C 135.925781 94.179688 139.308594 92.410156 133.457031 94.953125 C 131.636719 95.648438 133.105469 94.972656 129.539062 97.707031 C 127.933594 99.246094 129.039062 97.546875 126.941406 101.597656 C 126.722656 101.984375 126.636719 102.425781 126.421875 102.8125 L 126.4375 102.730469 C 125.539062 105 125.492188 109.585938 120.871094 118.335938 C 121.28125 118.375 125.765625 117.613281 127.746094 116.480469 C 127.878906 116.410156 131.5 114.609375 131.613281 114.511719 C 132.132812 114.097656 133.605469 113.09375 133.796875 113.007812 C 133.707031 113.238281 131.121094 116.023438 130.941406 116.25 C 130.496094 116.570312 128.519531 117.273438 128.003906 117.707031 C 127.890625 117.625 127.753906 117.769531 127.695312 117.855469 C 127.613281 117.992188 127.84375 118.019531 127.910156 117.9375 L 127.882812 118.003906 C 130.097656 118.511719 129.652344 118.878906 131.019531 118.773438 C 131.042969 118.949219 131.394531 118.941406 131.519531 118.847656 C 132.332031 119.164062 144.070312 120.511719 146.765625 119.5625 C 147.707031 119.445312 150.679688 118.621094 150.976562 118.570312 C 151.832031 118.054688 152.578125 117.363281 153.449219 116.867188 C 153.796875 116.554688 154.546875 115.347656 154.90625 115.125 C 154.875 115.316406 154.828125 115.507812 154.8125 115.703125 C 154.703125 115.980469 154.664062 116.277344 154.617188 116.566406 C 154.515625 116.761719 154.441406 116.96875 154.433594 117.191406 C 154.316406 117.421875 154.246094 117.675781 154.253906 117.941406 C 154.125 118.019531 150.40625 121.480469 148.296875 122.546875 C 159.058594 126.859375 161.324219 130.535156 163.765625 133.050781 C 163.65625 133.019531 163.546875 132.988281 163.445312 132.957031 C 163.386719 132.808594 157.664062 128.054688 157.367188 128.0625 C 149.519531 123.648438 140.046875 121.359375 138.738281 120.785156 C 137.730469 120.664062 132.886719 119.597656 131.652344 119.429688 C 131.53125 119.402344 122.347656 118.988281 122.265625 119.027344 C 122.136719 118.917969 122.050781 118.9375 122 119.089844 C 121.480469 119.03125 119.835938 119.296875 119.757812 119.328125 C 119.496094 119.332031 117.683594 119.535156 117.5 119.621094 C 117.195312 119.621094 112.585938 120.125 112.492188 120.1875 C 110.378906 120.246094 100.65625 122.527344 97.753906 123.203125 C 80.144531 128.921875 78.136719 131.894531 70.410156 137.851562 C 68.648438 139.078125 69.027344 138.710938 65.292969 144.691406 C 64.835938 145.351562 64.132812 148.546875 64.074219 148.84375 C 63.914062 150.03125 64.300781 151.195312 64.355469 152.378906 C 64.359375 152.382812 65.5 154.191406 65.503906 154.195312 C 67.578125 155.613281 67.523438 154.890625 70.019531 155.140625 C 69.570312 155.480469 68.589844 157.132812 68.007812 157.511719 C 68.257812 157.851562 68.398438 158.269531 68.671875 158.589844 C 70.070312 161.417969 73.800781 164 76.59375 165.441406 C 88.539062 168.441406 86.296875 168.148438 91.417969 166.832031 C 86.894531 163.164062 86.515625 163.078125 86.085938 162.507812 C 88.929688 164.023438 88.878906 165.03125 95.636719 165.699219 C 96.160156 165.832031 100.457031 164.910156 100.523438 164.875 C 105.929688 163.078125 104.273438 163.75 105.5 163.988281 C 106.386719 164.359375 107.359375 164.488281 108.316406 164.457031 C 108.59375 164.648438 108.957031 164.53125 109.273438 164.578125 C 109.519531 164.683594 109.800781 164.683594 110.046875 164.578125 C 110.300781 164.554688 110.585938 164.613281 110.816406 164.46875 C 113.074219 164.554688 113.058594 164.140625 117.203125 161.4375 C 118.21875 161.730469 119.789062 162.402344 120.097656 162.421875 C 120.300781 162.566406 124.425781 162.824219 124.574219 162.820312 C 125.542969 162.46875 126.089844 162.449219 129.96875 160.941406 C 130.347656 160.769531 131.664062 160.8125 132.023438 160.6875 C 135.703125 160.503906 135.109375 160.496094 138.667969 159.441406 C 142.601562 158.203125 140.171875 159.917969 144.671875 154.761719 C 144.675781 154.8125 144.6875 154.914062 144.695312 154.964844 C 144.675781 155.007812 144.429688 156.773438 144.347656 158.703125 C 144.898438 158.699219 145.425781 158.871094 145.972656 158.925781 C 147.101562 159.234375 147.921875 158.785156 149.421875 158.695312 C 153.75 157.15625 154.574219 156.175781 155.632812 154.992188 C 157.90625 152.371094 156.285156 155.507812 160.171875 149.335938 C 165.589844 140.738281 163.429688 143.308594 165.414062 139.023438 C 165.34375 139.015625 158.960938 138.160156 158.265625 138.046875 C 157.882812 137.957031 143.03125 136.847656 141.699219 137.792969 C 139.890625 137.789062 133.847656 138.917969 132.640625 139.023438 C 132.320312 138.996094 132.007812 138.875 131.683594 138.894531 C 131.453125 138.746094 131.164062 138.804688 130.90625 138.78125 C 127.347656 138.003906 130.015625 139.144531 125.054688 136.675781 C 124.796875 136.496094 115.40625 137.460938 115.179688 137.601562 C 114.972656 137.601562 114.757812 137.589844 114.566406 137.667969 C 114.183594 137.722656 113.757812 137.582031 113.417969 137.789062 C 112.421875 137.71875 106.539062 138.230469 103.59375 139.15625 C 94.203125 139.246094 86.808594 141.113281 79.246094 144.734375 C 76.257812 146.414062 79.785156 143.453125 74.183594 149.589844 C 73.847656 150.921875 73.527344 152.257812 73.152344 153.582031 C 73.082031 152.285156 73.144531 150.988281 73.105469 149.691406 C 72.851562 150.074219 70.933594 152.675781 70.507812 152.832031 C 71.070312 152.101562 72.976562 149.113281 73.070312 148.921875 C 71.414062 148.777344 72.878906 149.355469 69.488281 147.535156 C 69.34375 147.050781 69.230469 146.527344 69.234375 146.011719 C 70.183594 146.25 71.140625 146.46875 72.089844 146.703125 C 72.707031 146.65625 73.332031 146.566406 73.925781 146.398438 C 74.078125 146.445312 74.480469 146.5 74.488281 146.289062 C 74.78125 146.238281 74.984375 145.96875 75.230469 145.816406 C 81.117188 141.632812 75.660156 144.621094 86.1875 140.367188 C 86.636719 140.273438 95.347656 137.984375 96.609375 137.566406 C 95.820312 136 95.613281 135.988281 94.9375 132.421875 C 95.140625 131.789062 96.179688 129.777344 96.367188 129.496094 C 96.472656 130.707031 96.375 131.925781 96.421875 133.136719 C 96.726562 133.746094 96.777344 134.449219 97.097656 135.054688 C 97.125 135.078125 99.503906 136.667969 99.804688 136.792969 C 100.40625 137.007812 103.472656 137.25 103.753906 137.164062 C 105.550781 136.753906 107.347656 136.351562 109.125 135.863281 C 109.855469 135.726562 116.304688 136.480469 117.308594 135.746094 C 117.894531 135.757812 124.054688 135.128906 124.480469 135.078125 C 124.722656 134.550781 125.53125 131.382812 125.550781 131.316406 C 126.546875 130.976562 127.484375 130.476562 128.492188 130.164062 C 128 131.042969 127.328125 131.808594 126.757812 132.640625 C 126.691406 133.460938 126.574219 134.285156 126.355469 135.078125 C 129.828125 138.054688 131.21875 137.402344 137.480469 136.671875 C 150.496094 135.316406 157.957031 136.488281 158.578125 136.484375 C 158.65625 136.535156 163.226562 137.078125 163.996094 137.027344 L 163.992188 137.144531 C 164.300781 137.144531 164.609375 137.140625 164.917969 137.160156 C 165.0625 137.21875 165.21875 137.21875 165.375 137.234375 C 165.351562 137.167969 164.710938 135.339844 164.660156 135.0625 C 165.367188 135.652344 165.738281 135.867188 166.511719 136.511719 C 168.875 134.171875 174.828125 132.464844 176.003906 131.53125 C 176.003906 131.53125 178.40625 126.15625 178.476562 126.019531 C 178.839844 126.011719 179.203125 126.007812 179.566406 126.015625 C 179.5625 126.019531 177.832031 131.949219 177.78125 132.082031 C 176.726562 132.679688 175.578125 133.082031 174.511719 133.648438 C 168.058594 136.804688 169.558594 135.984375 168.839844 137.058594 C 164.136719 144.523438 165.59375 141.902344 163.871094 148.308594 C 163.652344 149.320312 163.691406 148.546875 164.234375 150.335938 C 164.476562 150.773438 163.789062 150.675781 168.34375 150.667969 C 168.382812 150.714844 174.832031 156.4375 174.996094 156.539062 C 179.972656 157.398438 177.707031 157.621094 179.4375 156.820312 C 180.511719 156.300781 185.804688 150.214844 185.707031 142.542969 C 186.261719 141.351562 185.0625 138.535156 184.824219 137.683594 C 183.195312 138.589844 181.621094 139.613281 179.925781 140.398438 C 185.179688 136.074219 183.164062 138.53125 185.441406 135.292969 C 185.683594 134.800781 185.617188 134.246094 185.621094 133.714844 C 185.671875 133.542969 185.714844 133.367188 185.722656 133.191406 C 185.863281 132.789062 185.796875 132.363281 185.796875 131.949219 L 185.671875 131.953125 C 185.160156 128.816406 185.371094 132.097656 184.859375 126.859375 C 184.8125 126.1875 185.007812 125.527344 184.957031 124.855469 C 185.132812 124.527344 185.046875 124.144531 185.054688 123.792969 C 185.21875 123.121094 185.242188 123.308594 184.5 122.554688 C 184.273438 122.167969 183.574219 121.5625 183.257812 121.578125 C 183.375 121.34375 182.839844 121.332031 182.957031 121.570312 L 182.890625 121.566406 C 182.648438 121.929688 182.382812 122.285156 182.0625 122.589844 C 180.273438 122.597656 178.488281 122.589844 176.699219 122.59375 L 176.71875 122.695312 L 176.636719 122.695312 C 176.164062 123.925781 174.515625 127 174.316406 127.425781 C 174.246094 127.476562 169.816406 130.210938 169.628906 130.296875 C 169.722656 130.121094 172.621094 126.980469 172.691406 126.917969 C 172.945312 126.496094 173.4375 126.242188 173.578125 125.75 C 173.972656 124.707031 174.972656 122.710938 174.933594 122.300781 C 175.117188 122.300781 175.082031 121.945312 175.027344 121.820312 C 175.183594 121.605469 175.027344 121.796875 175.308594 120.183594 C 175 119.640625 173.203125 117.578125 172.777344 117.277344 L 172.855469 117.289062 C 172.734375 117.253906 171.59375 116.9375 171.269531 116.921875 C 170.75 116.742188 170.199219 116.6875 169.671875 116.558594 C 169.679688 116.019531 169.988281 115.53125 169.941406 114.816406 C 169.984375 114.792969 170.074219 114.738281 170.121094 114.710938 C 174.210938 117.066406 174.214844 115.679688 177.214844 120.074219 C 177.636719 120.148438 178.050781 120.25 178.472656 120.339844 C 178.820312 120.269531 181.421875 119.386719 181.742188 118.824219 C 181.996094 118.4375 182.59375 118.308594 182.671875 117.8125 C 182.777344 117.515625 182.839844 115.175781 182.847656 115.109375 C 182.96875 114.804688 182.910156 114.464844 182.921875 114.144531 C 183.085938 114.128906 183.085938 113.648438 182.925781 113.628906 C 182.921875 113.589844 182.917969 113.503906 182.914062 113.464844 C 180.839844 107.867188 180.800781 108.335938 180.230469 107.957031 C 179.101562 107.238281 178.105469 106.332031 176.972656 105.617188 C 175.328125 107.230469 170.5625 113.210938 170.417969 113.441406 C 169.957031 113.625 169.464844 113.761719 169.003906 113.957031 C 168.765625 113.976562 168.539062 114.042969 168.332031 114.148438 C 167.929688 114.226562 167.566406 114.425781 167.183594 114.554688 C 167.058594 115.117188 166.796875 115.632812 166.539062 116.148438 C 166.472656 116.492188 166.492188 116.855469 166.523438 117.203125 C 166.675781 117.582031 166.804688 117.96875 166.886719 118.367188 C 166.875 118.363281 164.414062 117.28125 164.382812 117.273438 C 164.34375 116.558594 164.378906 115.839844 164.367188 115.121094 C 164.433594 115.066406 165.949219 113.695312 166.152344 113.351562 C 166.304688 113.328125 166.46875 113.335938 166.609375 113.265625 C 169.640625 112.894531 169.484375 112.480469 171.492188 110.53125 C 172.078125 109.957031 172.34375 109.160156 172.78125 108.484375 C 174.335938 105.996094 174.175781 105.410156 174.9375 103.519531 C 174.816406 103.242188 174.742188 102.949219 174.738281 102.644531 L 174.695312 102.578125 C 174.121094 99.785156 174.679688 100.890625 171.011719 97.898438 C 165.996094 96.027344 169.226562 95.238281 164.234375 96.695312 C 159.035156 100.335938 163.734375 97.28125 158.886719 102.847656 C 155.007812 108.535156 157.910156 103.679688 155.28125 109.996094 C 155.132812 110.347656 155.699219 111.699219 155.730469 111.769531 C 155.746094 112.0625 155.808594 112.355469 155.921875 112.632812 C 155.925781 112.675781 155.925781 112.769531 155.929688 112.816406 C 155.632812 112.558594 154.191406 110.65625 154.105469 110.433594 C 154.054688 109.582031 153.734375 108.753906 153.808594 107.898438 C 153.988281 107.648438 156.550781 102.769531 159.011719 100.378906 C 159.070312 100.242188 159.621094 98.46875 159.667969 98.148438 C 159.867188 97.757812 159.910156 97.308594 160.074219 96.90625 C 160.136719 96.613281 162.847656 95.414062 163.921875 94.695312 C 163.785156 94.472656 160.964844 90.535156 160.542969 90.386719 C 160.480469 90.359375 156.886719 88.75 156.675781 88.601562 C 156.589844 88.542969 156.5 88.515625 156.402344 88.527344 L 156.402344 88.414062 C 156.09375 88.410156 155.792969 88.417969 155.488281 88.394531 C 155.4375 88.375 152.390625 87.902344 151.671875 87.859375 L 151.671875 87.773438 C 150.835938 87.738281 150.015625 87.53125 149.183594 87.464844 C 148.9375 87.355469 148.644531 87.359375 148.402344 87.464844 M 167.550781 91.957031 C 167.140625 92.390625 166.679688 92.777344 166.304688 93.238281 C 166.484375 93.683594 166.695312 94.132812 166.980469 94.523438 C 167.800781 94.496094 168.617188 94.621094 169.429688 94.746094 C 171.105469 95.867188 174.625 97.90625 174.625 97.90625 C 174.910156 98.261719 176.4375 100.851562 176.683594 101.300781 C 176.871094 102.234375 176.96875 103.1875 177.101562 104.132812 C 177.140625 104.144531 177.222656 104.171875 177.261719 104.183594 L 177.273438 104.234375 C 178.160156 104.578125 178.929688 105.15625 179.816406 105.5 C 180.453125 106.011719 181.117188 106.480469 181.761719 106.984375 C 181.953125 106.414062 181.992188 105.800781 182.273438 105.265625 C 177.203125 95.097656 179.71875 99.542969 178.085938 97.414062 C 177.8125 97.019531 177.417969 96.726562 177.175781 96.3125 C 177.050781 96.210938 176.914062 96.117188 176.773438 96.050781 C 177.042969 96.9375 177.660156 98.820312 177.789062 99.765625 C 177.441406 99.339844 174.664062 94.164062 174.632812 94.097656 C 171.820312 91.550781 170.9375 91.832031 168.644531 90.898438 C 168.242188 91.214844 167.917969 91.609375 167.550781 91.957031 M 174.964844 91.675781 C 175.019531 91.734375 175.019531 91.734375 174.964844 91.675781 M 41.359375 97.75 C 41.046875 97.734375 38.875 98.359375 38.667969 98.453125 C 35.300781 99.96875 36.339844 99.414062 34.007812 102.140625 C 33.609375 102.609375 33.488281 102.417969 32.414062 104.4375 C 31.527344 106.09375 31.621094 105.511719 31.597656 106.476562 C 31.617188 107.265625 31.320312 109.429688 32.265625 110.800781 C 36.851562 110.640625 34.894531 109.0625 36.453125 108.167969 C 35.753906 106.757812 36.0625 106.722656 35.742188 105.375 C 35.707031 105.164062 35.613281 104.917969 35.773438 104.734375 C 37.511719 102.046875 36.84375 101.988281 39.132812 100.21875 C 39.269531 100.117188 41.3125 98.21875 41.636719 97.832031 C 41.972656 97.742188 41.382812 97.488281 41.359375 97.75 M 180.765625 99.394531 C 183.421875 104.988281 185.21875 105.121094 183.203125 108.875 C 184.808594 113.121094 184.214844 113.558594 184.851562 115.382812 C 184.867188 115.648438 184.847656 115.917969 184.925781 116.175781 L 184.945312 116.078125 C 184.917969 116.269531 184.972656 115.953125 184.523438 118.152344 C 184.597656 118.539062 185.445312 120.386719 185.921875 121.769531 L 185.96875 121.753906 C 186.035156 121.992188 186.117188 122.226562 186.222656 122.449219 C 186.269531 122.179688 186.3125 121.90625 186.34375 121.628906 C 186.476562 121.480469 187.171875 118.742188 187.28125 117.21875 L 187.179688 117.21875 C 187.222656 116.035156 186.609375 111.769531 186.421875 109.511719 L 186.375 109.429688 C 186.140625 105.792969 185.480469 104.632812 183.773438 101.457031 C 183.066406 100.867188 181.367188 99.726562 181.054688 99.601562 C 181.074219 99.453125 180.847656 99.464844 180.765625 99.394531 M 38.144531 109.328125 C 36.242188 110.0625 37.015625 109.835938 36.554688 111.914062 C 36.539062 111.980469 36.324219 117.089844 35.4375 118.480469 C 34.445312 120.078125 33.546875 122.480469 33.816406 124.425781 C 34.210938 126.875 33.714844 125.515625 35.113281 127.402344 C 35.371094 127.773438 38.035156 129.835938 38.628906 130.011719 C 40.945312 130.824219 41.53125 131.210938 42.582031 131.519531 C 51.1875 134.019531 47.195312 133.695312 52.714844 133.695312 C 51.097656 132.402344 51.507812 132.011719 49.632812 131.339844 C 44.261719 129.722656 44.539062 130.117188 40.34375 127.085938 C 39.886719 126.65625 39.65625 126.054688 39.269531 125.570312 C 38.347656 124.144531 39.175781 126.105469 37.171875 121.566406 C 37.097656 120.578125 37.398438 119.613281 37.460938 118.632812 C 37.84375 118.25 38.207031 117.847656 38.621094 117.496094 C 38.347656 120.164062 37.433594 121.960938 41.1875 126.429688 C 42.546875 128.238281 52.640625 130.703125 53.722656 131.878906 C 57.488281 135.832031 62.503906 137.199219 67.917969 137.457031 C 69.066406 137.519531 68.355469 137.402344 69.960938 136.109375 C 69.960938 136.109375 72.230469 134.480469 72.230469 134.480469 C 73.105469 133.371094 73.332031 131.210938 73.382812 130.945312 C 73.054688 130.75 72.734375 130.546875 72.40625 130.359375 C 72.144531 131.21875 71.945312 132.949219 71.429688 133.3125 C 69.257812 134.957031 69.929688 134.722656 69.007812 134.871094 C 68.601562 134.914062 65.480469 135.210938 64.78125 135.097656 C 59.386719 134.890625 60.628906 134.960938 58.585938 133.695312 C 55.597656 131.898438 56.425781 132.136719 55.222656 130.847656 C 54.953125 130.472656 54.566406 130.199219 54.308594 129.816406 C 54.046875 129.25 53.828125 128.664062 53.550781 128.105469 C 53.464844 128.117188 53.382812 128.125 53.300781 128.132812 C 53.289062 128.105469 51.222656 122.976562 51.222656 122.976562 C 48.070312 122.617188 43.238281 123.203125 41.710938 113.882812 C 41.820312 112.378906 41.894531 110.871094 42.046875 109.371094 C 41.054688 109.726562 39.402344 108.875 38.144531 109.328125 M 34.160156 112.089844 C 33.40625 112.515625 32.535156 112.703125 31.820312 113.195312 C 31.820312 113.199219 30.191406 116.109375 30.191406 116.109375 C 28.78125 118.976562 29.359375 118.425781 28.511719 120.4375 C 28.355469 120.800781 28.363281 124.390625 28.488281 124.851562 C 28.847656 127.230469 28.433594 126.6875 29.914062 129.234375 C 29.851562 129.328125 29.957031 129.503906 30.074219 129.480469 C 30.148438 129.433594 30.238281 129.320312 30.1875 129.234375 C 30.570312 128.640625 30.613281 127.976562 31.882812 126.785156 C 31.902344 121.214844 31.75 123.707031 32.621094 120.859375 C 32.855469 119.941406 34.277344 117.4375 34.363281 117.316406 C 34.917969 116.515625 34.464844 117.269531 34.863281 112.015625 C 34.625 112.007812 34.386719 112.015625 34.160156 112.089844 M 188.585938 114.5625 C 188.550781 114.808594 188.554688 115.074219 188.714844 115.28125 C 188.609375 115.953125 188.691406 116.636719 188.667969 117.316406 L 188.765625 117.320312 C 188.816406 118.351562 188.375 120.808594 187.65625 122.320312 C 187.046875 123.792969 186.507812 124.433594 186.558594 124.804688 C 187.703125 135.046875 187.566406 128.683594 186.757812 136.699219 C 186.699219 137.4375 186.355469 137.433594 187.351562 140.105469 C 187.445312 143.21875 187.1875 144.792969 187.1875 144.792969 C 188.53125 142.714844 189.21875 137.324219 188.960938 136.667969 C 188.910156 136.074219 189.066406 135.449219 188.859375 134.878906 C 188.835938 134.425781 188.902344 133.960938 188.773438 133.519531 C 188.761719 133.199219 188.828125 132.851562 188.660156 132.5625 C 188.714844 130.320312 189.382812 122.210938 189.285156 120.644531 C 189.359375 120.53125 189.363281 120.359375 189.308594 120.242188 C 189.332031 120.214844 189.375 120.160156 189.398438 120.132812 C 189.355469 120.007812 189.035156 116.167969 188.976562 116.09375 C 188.917969 115.84375 188.898438 115.574219 188.765625 115.351562 C 188.761719 115.078125 188.675781 114.816406 188.585938 114.5625 M 191.101562 121.273438 C 189.777344 126.378906 191.222656 136.796875 190.601562 138.785156 C 189.855469 142.765625 190.945312 142.734375 181.90625 157.058594 C 181.304688 158 181.558594 157.992188 179.964844 158.75 C 179.941406 159.351562 180 159.957031 179.925781 160.554688 C 179.296875 163.464844 179.519531 164.054688 179.183594 164.433594 C 176.6875 167.121094 178.929688 166.089844 173.765625 167.175781 C 173.402344 167.257812 173.03125 167.246094 172.664062 167.25 C 171.953125 166.878906 169.339844 167.40625 167.960938 166.4375 C 167.652344 166.210938 164.976562 164.289062 164.046875 163.777344 C 163.40625 163.636719 162.746094 163.550781 162.09375 163.535156 C 161.765625 163.375 161.390625 163.441406 161.039062 163.429688 C 154.199219 160.769531 160.113281 163.863281 153.535156 159.085938 C 152.425781 159.742188 151.234375 160.25 150.097656 160.855469 C 151.171875 162.835938 149.398438 161.191406 153.144531 164.195312 C 153.683594 164.539062 154.285156 164.78125 154.855469 165.082031 C 156.402344 165.777344 156.042969 166.125 157.941406 166.140625 C 158.390625 166.300781 160.613281 166.257812 161.078125 166.363281 C 161.445312 166.417969 165.695312 167.679688 168.332031 169.398438 C 168.5625 169.566406 172.203125 170.21875 172.5 170.21875 C 172.84375 170.355469 173.242188 170.363281 173.585938 170.214844 C 180.371094 168.386719 177.394531 169.914062 182.066406 166.574219 C 182.671875 166.15625 183.222656 165.65625 183.875 165.304688 C 183.421875 166.09375 182.746094 166.726562 182.199219 167.449219 C 181.308594 168.488281 181.664062 169.019531 176.304688 171.292969 C 177.605469 171.316406 178.910156 171.328125 180.210938 171.292969 C 184.691406 169.015625 185.621094 167.007812 186.699219 166.015625 C 186.753906 165.960938 189.914062 161.59375 190.050781 161.34375 C 190.242188 161.148438 190.5 160.90625 190.40625 160.605469 C 190.65625 159.082031 190.75 157.535156 191.085938 156.023438 C 188.761719 159.066406 186.550781 161.535156 186.550781 161.535156 C 187.027344 160.617188 189.726562 155.894531 190.589844 153.890625 L 190.707031 153.90625 C 190.707031 153.863281 190.714844 147.070312 190.722656 147.03125 C 191.335938 147.847656 191.570312 148.894531 192.230469 149.683594 C 192.425781 148.859375 193.667969 143.027344 193.683594 142.234375 C 193.664062 134.988281 193.734375 135.335938 193.597656 134.972656 C 193.570312 133.453125 193.164062 130.707031 193.117188 130.617188 C 192.957031 125.785156 191.894531 123.511719 191.101562 121.273438 M 33.359375 128.992188 C 33.050781 129.738281 32.941406 130.542969 32.703125 131.3125 C 32.554688 131.640625 33.429688 133.953125 33.6875 134.386719 C 39.75 138.261719 36.910156 134.214844 52.449219 138.625 C 54.878906 139.527344 59.285156 143.132812 59.285156 143.132812 C 59.476562 143.355469 59.792969 143.265625 60.050781 143.273438 C 60.25 143.320312 60.460938 143.335938 60.667969 143.351562 C 61.78125 143.789062 63.035156 143.398438 64.117188 142.878906 C 64.03125 142.738281 61.636719 138.871094 61.132812 138.648438 C 61.097656 138.632812 54.253906 135.257812 54.214844 135.269531 C 48.292969 136.113281 49.339844 135.828125 48.023438 135.648438 C 47.757812 135.511719 47.460938 135.453125 47.160156 135.449219 C 46.617188 135.246094 46.035156 135.179688 45.472656 135.027344 C 40.558594 133.960938 40.675781 133.367188 37.886719 132.414062 C 35.628906 131.6875 35.535156 131.082031 35.132812 130.71875 C 34.539062 130.148438 33.980469 129.535156 33.359375 128.992188 M 30.882812 132.761719 C 30.863281 133.007812 30.789062 135.429688 30.9375 135.746094 C 32.171875 138.597656 31.460938 137.914062 32.695312 138.898438 C 34.59375 140.40625 34.71875 140.421875 34.917969 140.472656 C 37.265625 141.035156 38.050781 141.851562 41.019531 142.074219 C 52.503906 143.628906 50.714844 144.476562 60.730469 148.101562 C 61.324219 148.132812 61.914062 147.976562 62.503906 147.929688 C 62.652344 147.175781 62.921875 146.445312 63.011719 145.679688 C 60.96875 145.652344 62 146.808594 56.871094 143 C 52.21875 139.480469 53.382812 140.335938 49.164062 139.128906 C 47.21875 138.625 42.714844 137.835938 42.058594 137.855469 C 41.929688 137.8125 41.789062 137.789062 41.652344 137.777344 L 41.566406 137.710938 C 40.882812 137.570312 36.996094 137.804688 36.53125 137.574219 C 36.46875 137.542969 33.558594 136.15625 33.421875 136.039062 C 31.761719 134.570312 31.523438 134.628906 31.398438 134.269531 C 31.210938 133.769531 31.105469 133.246094 30.882812 132.761719 M 187.101562 144.851562 C 186.953125 145.125 187.410156 144.867188 187.101562 144.851562 M 154.945312 158.046875 C 158.117188 161.394531 157.625 160.792969 160.199219 161.589844 C 162.265625 162.046875 159.847656 161.84375 164.734375 161.160156 C 165.363281 162.085938 166.183594 162.863281 166.820312 163.78125 C 167.273438 164.472656 168.128906 164.671875 168.839844 165.003906 C 170.246094 165.535156 170.296875 166.058594 171.980469 166.042969 L 171.980469 165.9375 C 172.402344 165.960938 175.082031 165.710938 175.214844 165.65625 C 176.039062 165.296875 176.878906 164.96875 177.703125 164.605469 C 178.046875 163.378906 178.113281 162.09375 178.441406 160.863281 C 178.179688 160.054688 177.699219 159.328125 177.484375 158.496094 C 173.109375 157.257812 174.367188 158.585938 172.734375 156.851562 C 172.5625 156.6875 169.445312 153.246094 169.242188 153.121094 C 167.992188 152.910156 167.328125 152.480469 163.523438 151.976562 C 163.078125 151.917969 162.632812 151.832031 162.195312 151.726562 C 162.027344 151.15625 161.898438 150.582031 161.753906 150.007812 C 160.921875 151.59375 154.992188 157.980469 154.945312 158.046875 Z M 154.945312 158.046875 " fill-opacity="1" fill-rule="nonzero"/></g><path fill="#000000" d="M 130.289062 73.273438 C 129.652344 73.375 129.03125 73.167969 128.398438 73.121094 C 122.6875 72.351562 125.585938 72.605469 120.796875 73.597656 C 120.320312 73.714844 120.519531 73.394531 118.269531 76.179688 C 118.210938 77.765625 118.359375 79.078125 118.15625 79.574219 C 117.304688 81.664062 117.6875 81.675781 116.878906 82.378906 C 116.378906 82.789062 115.929688 83.28125 115.351562 83.589844 C 115.53125 82.566406 117.019531 80.449219 116.367188 78.472656 C 115.164062 75.960938 116.035156 76.523438 112.984375 74.71875 C 110.335938 73.097656 110.921875 73.835938 107.011719 73.359375 C 106.167969 73.195312 105.550781 73.882812 100.578125 76.175781 C 100.136719 75.816406 99.699219 75.441406 99.214844 75.148438 C 92.824219 74.035156 89.609375 76.488281 86.609375 78.449219 C 85.296875 79.398438 82.660156 80.070312 79.886719 81.335938 C 79.625 81.402344 74.484375 82.175781 73.90625 82.074219 C 71.386719 81.351562 71.085938 81.417969 69.871094 81.042969 C 82.800781 80.734375 81.675781 78.964844 86.726562 76.527344 C 88.484375 75.570312 91.339844 73.925781 91.957031 73.824219 C 96.96875 72.910156 93.445312 72.152344 100.070312 73.003906 C 100.742188 73.09375 101.433594 73.402344 102.097656 73.09375 C 103.085938 72.753906 104.105469 72.453125 105.03125 71.953125 C 106.902344 71.402344 113.359375 72.273438 115.296875 72.792969 C 118.042969 73.507812 117.503906 67.761719 130.289062 73.273438 Z M 130.289062 73.273438 " fill-opacity="1" fill-rule="nonzero"/><path fill="#000000" d="M 98.160156 79.226562 C 96.421875 87.496094 97.207031 87.320312 97.789062 89.894531 C 95.570312 88.042969 95.960938 88.042969 95.65625 85.078125 C 95.640625 84.976562 95.402344 81.75 98.160156 79.226562 Z M 98.160156 79.226562 " fill-opacity="1" fill-rule="nonzero"/><path fill="#000000" d="M 155.707031 94.699219 C 153.800781 95.914062 151.320312 97.171875 148.671875 99.308594 C 149.800781 100.007812 151.039062 100.5 152.1875 101.160156 C 145.875 100.3125 148.261719 100.195312 143.519531 101.117188 C 141.40625 101.585938 142.914062 100.492188 137.25 104.953125 C 137.207031 105.015625 134.507812 109.105469 134.414062 109.210938 C 134.726562 106.988281 134.484375 107.542969 135.253906 105.921875 C 136.46875 103.53125 136.035156 104.394531 137.597656 102.980469 C 140.515625 100.5625 140.484375 100.699219 140.65625 100.382812 C 150.789062 98.710938 146.578125 96.738281 155.707031 94.699219 Z M 155.707031 94.699219 " fill-opacity="1" fill-rule="nonzero"/><path fill="#000000" d="M 157.703125 118.546875 C 158.136719 119.523438 158.539062 122.949219 159.117188 123.308594 C 159.117188 123.308594 161.804688 125.164062 161.804688 125.164062 C 162.035156 125.402344 163.988281 125.546875 165.859375 125.929688 C 166.40625 126.070312 167.265625 125.589844 167.523438 125.5 C 169.625 124.652344 168.367188 125.46875 169.566406 124.074219 C 170.011719 123.5 170.519531 122.964844 170.867188 122.320312 C 170.917969 122.199219 171.03125 122.140625 171.136719 122.074219 C 171.121094 122.109375 170.4375 123.796875 169.699219 125.316406 C 168.929688 126.0625 167.511719 127.078125 167.285156 127.488281 C 167.285156 127.488281 163.699219 127.125 163.699219 127.125 C 163.632812 127.078125 159.808594 125.40625 159.394531 125.347656 C 158.292969 122.722656 157.40625 124.433594 157.703125 118.546875 Z M 157.703125 118.546875 " fill-opacity="1" fill-rule="nonzero"/><path fill="#000000" d="M 144.046875 125.667969 C 144.847656 126 148.648438 127.007812 149.683594 127.265625 C 149.75 127.296875 158.703125 131.628906 159.527344 132.109375 C 159.460938 132.089844 147.105469 127.542969 146.003906 127.425781 C 146.003906 127.425781 140.777344 127.199219 138.3125 127.140625 C 138.140625 127.136719 132.796875 127.769531 132.539062 127.789062 C 132.976562 127.246094 133.632812 126.914062 134.007812 126.3125 C 135.410156 126.320312 137.539062 125.292969 144.046875 125.667969 Z M 144.046875 125.667969 " fill-opacity="1" fill-rule="nonzero"/><path fill="#000000" d="M 110.015625 142.558594 C 110.015625 142.558594 115.085938 146.355469 115.085938 146.355469 C 122.128906 149.257812 120.296875 148.292969 123.050781 148.675781 C 124.875 148.972656 125.515625 148.996094 128.855469 147.90625 C 129.476562 147.886719 128.292969 146.128906 127.996094 144.53125 C 128.664062 144.945312 128.566406 145.03125 131.960938 147.75 C 132.773438 148.078125 135.542969 148.289062 137.4375 148.753906 C 138.789062 149.003906 139.234375 148.621094 144.230469 148.414062 C 157.945312 144.570312 152.285156 145.71875 158.386719 143.605469 C 158.320312 143.671875 153.527344 147.554688 153.007812 147.832031 C 152.941406 147.871094 150.050781 149.546875 149.890625 149.714844 C 149.523438 150.578125 148.523438 152.449219 148.523438 152.449219 C 148.445312 151.609375 148.148438 149.746094 148.140625 149.679688 C 148.074219 149.6875 140.082031 151.199219 135.261719 150.097656 C 135.195312 150.082031 130.363281 148.992188 129.800781 148.953125 C 128.605469 149.496094 126.992188 150.414062 126.730469 150.390625 C 121.285156 150.402344 121.523438 150.40625 121.242188 150.304688 C 120.621094 150.105469 116.542969 149.183594 114.019531 147.878906 C 107.726562 151.3125 103.625 150.761719 100.109375 150.757812 C 98.953125 150.515625 97.855469 150.054688 96.742188 149.671875 C 95.859375 149.066406 94.96875 148.453125 94.132812 147.78125 C 100.042969 149.425781 100.496094 150.449219 108.289062 148.734375 C 108.761719 148.601562 109.269531 148.546875 109.691406 148.28125 C 110.707031 147.609375 111.84375 147.136719 112.816406 146.386719 C 111.921875 145.085938 110.914062 143.863281 110.015625 142.558594 Z M 110.015625 142.558594 " fill-opacity="1" fill-rule="nonzero"/><path fill="#000000" d="M 96.148438 152.339844 C 92.667969 154.785156 92.226562 154.605469 92.335938 154.894531 C 92.824219 155.246094 94.996094 156.347656 95.339844 156.539062 C 97.277344 156.980469 98.222656 157.917969 103.078125 157.972656 C 113.355469 157.9375 115.75 156.15625 122.777344 154.128906 C 123.1875 154.046875 123.539062 153.753906 123.980469 153.808594 C 121.203125 155.144531 114.316406 158.109375 109.085938 159.441406 C 104 159.859375 96.652344 160.269531 92.132812 157.890625 C 90.40625 157.023438 89.253906 155.480469 88.714844 155.582031 C 86.128906 156.054688 83.136719 156.179688 77.78125 160.039062 C 76.285156 160.960938 77.257812 160.398438 74.527344 160.921875 C 73.734375 160.765625 72.988281 160.449219 72.246094 160.136719 C 77.136719 159.832031 74.410156 160.609375 76.863281 159.300781 C 79.359375 157.863281 78.339844 157.972656 81.894531 155.621094 C 81.960938 155.582031 84.382812 154.121094 84.679688 154.054688 C 91.515625 152.542969 88.648438 152.789062 93.128906 152.484375 C 93.28125 152.449219 95.210938 152.289062 96.148438 152.339844 Z M 96.148438 152.339844 " fill-opacity="1" fill-rule="nonzero"/></svg>