<svg xmlns="http://www.w3.org/2000/svg" xmlns:xlink="http://www.w3.org/1999/xlink" width="300" zoomAndPan="magnify" viewBox="0 0 224.87999 225" height="300" preserveAspectRatio="xMidYMid meet" version="1.0"><defs><clipPath id="40e9b8e63a"><path d="M 42 45 L 190.421875 45 L 190.421875 180.289062 L 42 180.289062 Z M 42 45 " clip-rule="nonzero"/></clipPath></defs><g clip-path="url(#40e9b8e63a)"><path fill="#000000" d="M 171.429688 78.027344 C 167.734375 78.027344 164.296875 79.101562 161.375 80.933594 L 152.132812 68.132812 C 154.882812 65.714844 156.65625 62.214844 156.65625 58.277344 C 156.65625 51.003906 150.738281 45.089844 143.460938 45.089844 C 136.183594 45.089844 130.261719 51.003906 130.261719 58.277344 C 130.261719 63.550781 133.398438 68.078125 137.890625 70.183594 L 134.21875 80.507812 L 117.855469 73.5 C 118.566406 71.480469 118.949219 69.375 118.949219 67.203125 C 118.949219 56.742188 110.429688 48.230469 99.957031 48.230469 C 89.484375 48.230469 80.964844 56.742188 80.964844 67.203125 C 80.964844 69.800781 81.492188 72.273438 82.441406 74.527344 L 66.355469 82.546875 C 64.019531 78.824219 59.910156 76.328125 55.199219 76.328125 C 47.921875 76.328125 42 82.242188 42 89.511719 C 42 96.78125 47.921875 102.695312 55.199219 102.695312 C 55.65625 102.695312 56.085938 102.605469 56.53125 102.558594 L 59.617188 117.941406 C 51.542969 120.125 45.578125 127.488281 45.578125 136.238281 C 45.578125 146.699219 54.097656 155.210938 64.570312 155.210938 C 69.9375 155.210938 74.78125 152.964844 78.242188 149.375 L 90.160156 159.394531 C 88.683594 161.523438 87.808594 164.097656 87.808594 166.875 C 87.808594 174.144531 93.730469 180.058594 101.007812 180.058594 C 108.285156 180.058594 114.203125 174.144531 114.203125 166.875 C 114.203125 161.925781 111.425781 157.65625 107.378906 155.402344 L 112.578125 143.46875 C 115.457031 144.5625 118.5625 145.1875 121.820312 145.1875 C 136.203125 145.1875 147.90625 133.496094 147.90625 119.125 C 147.90625 115.914062 147.292969 112.847656 146.226562 110.007812 L 154.886719 106.285156 C 157.664062 111.203125 162.5625 114.75 168.335938 115.699219 L 166.90625 130.375 C 166.898438 130.375 166.890625 130.375 166.882812 130.375 C 159.609375 130.375 153.6875 136.289062 153.6875 143.558594 C 153.6875 150.828125 159.609375 156.742188 166.882812 156.742188 C 174.160156 156.742188 180.078125 150.828125 180.078125 143.558594 C 180.078125 137.152344 175.480469 131.8125 169.410156 130.628906 L 170.84375 115.945312 C 171.039062 115.949219 171.230469 115.972656 171.429688 115.972656 C 181.902344 115.972656 190.421875 107.460938 190.421875 97 C 190.421875 86.539062 181.902344 78.027344 171.429688 78.027344 Z M 160.691406 152.21875 C 161.769531 150.984375 163.363281 149.847656 164.421875 149.632812 C 165.441406 149.429688 166.214844 148.707031 166.441406 147.765625 C 166.519531 147.464844 166.53125 147.066406 166.558594 146.292969 C 166.570312 145.894531 166.390625 145.511719 166.074219 145.265625 C 165.410156 144.746094 164.832031 143.914062 164.519531 143.035156 C 164.414062 142.726562 164.195312 142.484375 163.925781 142.339844 C 163.917969 142.300781 163.910156 142.257812 163.902344 142.21875 C 164.121094 141.984375 164.253906 141.667969 164.253906 141.332031 C 164.25 139.886719 164.246094 138.636719 164.777344 138.105469 C 165.125 137.753906 165.828125 137.578125 166.902344 137.574219 C 167.9375 137.578125 168.640625 137.753906 168.988281 138.105469 C 169.519531 138.636719 169.519531 139.886719 169.511719 141.359375 C 169.511719 141.695312 169.644531 142.003906 169.859375 142.230469 C 169.855469 142.265625 169.847656 142.304688 169.84375 142.339844 C 169.570312 142.484375 169.351562 142.726562 169.246094 143.035156 C 168.933594 143.914062 168.355469 144.746094 167.691406 145.265625 C 167.375 145.511719 167.199219 145.988281 167.210938 146.390625 C 167.234375 147.066406 167.246094 147.464844 167.320312 147.75 C 167.554688 148.710938 168.332031 149.433594 169.339844 149.632812 C 170.402344 149.847656 171.996094 150.984375 173.074219 152.21875 C 171.324219 153.472656 169.195312 154.230469 166.882812 154.230469 C 164.570312 154.230469 162.441406 153.472656 160.691406 152.21875 Z M 177.5625 143.558594 C 177.5625 146.214844 176.550781 148.621094 174.933594 150.492188 C 173.636719 149.039062 171.59375 147.527344 169.769531 147.175781 C 169.757812 147.089844 169.746094 146.964844 169.742188 146.8125 C 170.425781 146.148438 171.007812 145.308594 171.410156 144.394531 C 171.875 144.054688 172.222656 143.460938 172.359375 142.699219 C 172.480469 141.960938 172.347656 141.289062 172.027344 140.820312 C 172.023438 139.09375 171.921875 137.484375 170.769531 136.332031 C 169.921875 135.480469 168.65625 135.0625 166.859375 135.0625 C 165.109375 135.0625 163.84375 135.480469 162.996094 136.332031 C 161.847656 137.480469 161.742188 139.078125 161.738281 140.816406 C 161.414062 141.292969 161.285156 141.96875 161.410156 142.71875 C 161.546875 143.472656 161.890625 144.0625 162.355469 144.398438 C 162.757812 145.304688 163.335938 146.144531 164.015625 146.800781 C 164.003906 146.953125 163.976562 147.085938 163.929688 147.167969 C 162.164062 147.527344 160.128906 149.039062 158.832031 150.492188 C 157.214844 148.621094 156.203125 146.214844 156.203125 143.558594 C 156.203125 137.675781 160.996094 132.886719 166.882812 132.886719 C 172.773438 132.886719 177.5625 137.675781 177.5625 143.558594 Z M 142.652344 59.984375 C 141.988281 59.464844 141.410156 58.628906 141.097656 57.75 C 140.988281 57.445312 140.773438 57.203125 140.503906 57.058594 C 140.496094 57.019531 140.488281 56.976562 140.480469 56.9375 C 140.699219 56.703125 140.828125 56.382812 140.828125 56.050781 C 140.824219 54.605469 140.820312 53.355469 141.351562 52.820312 C 141.699219 52.472656 142.402344 52.292969 143.476562 52.292969 C 144.515625 52.292969 145.21875 52.472656 145.566406 52.820312 C 146.097656 53.355469 146.097656 54.605469 146.089844 56.078125 C 146.089844 56.414062 146.222656 56.722656 146.4375 56.949219 C 146.429688 56.984375 146.425781 57.023438 146.417969 57.058594 C 146.144531 57.203125 145.929688 57.445312 145.820312 57.75 C 145.511719 58.632812 144.929688 59.464844 144.269531 59.984375 C 143.957031 60.226562 143.777344 60.605469 143.785156 61.003906 C 143.804688 61.804688 143.824219 62.183594 143.898438 62.464844 C 144.128906 63.421875 144.90625 64.144531 145.917969 64.351562 C 146.976562 64.566406 148.570312 65.699219 149.652344 66.9375 C 147.902344 68.1875 145.773438 68.945312 143.460938 68.945312 C 141.148438 68.945312 139.019531 68.1875 137.269531 66.9375 C 138.347656 65.699219 139.941406 64.566406 141.003906 64.351562 C 142.015625 64.144531 142.789062 63.421875 143.023438 62.46875 C 143.09375 62.183594 143.113281 61.804688 143.132812 61.003906 C 143.144531 60.605469 142.964844 60.226562 142.652344 59.984375 Z M 132.777344 58.277344 C 132.777344 52.390625 137.570312 47.605469 143.460938 47.605469 C 149.347656 47.605469 154.140625 52.390625 154.140625 58.277344 C 154.140625 60.933594 153.128906 63.339844 151.511719 65.207031 C 150.207031 63.753906 148.167969 62.242188 146.347656 61.902344 C 146.332031 61.8125 146.324219 61.683594 146.316406 61.527344 C 147.003906 60.867188 147.585938 60.027344 147.984375 59.109375 C 148.449219 58.773438 148.796875 58.179688 148.9375 57.421875 C 149.058594 56.679688 148.929688 56.007812 148.605469 55.535156 C 148.601562 53.808594 148.5 52.203125 147.347656 51.046875 C 146.5 50.195312 145.234375 49.78125 143.4375 49.78125 C 141.683594 49.78125 140.417969 50.195312 139.570312 51.046875 C 138.425781 52.199219 138.316406 53.796875 138.3125 55.535156 C 137.992188 56.011719 137.859375 56.6875 137.988281 57.4375 C 138.121094 58.191406 138.46875 58.78125 138.933594 59.117188 C 139.335938 60.023438 139.914062 60.859375 140.59375 61.519531 C 140.578125 61.671875 140.554688 61.804688 140.507812 61.886719 C 138.742188 62.242188 136.710938 63.753906 135.410156 65.207031 C 133.792969 63.339844 132.777344 60.933594 132.777344 58.277344 Z M 140.257812 71.023438 C 141.289062 71.28125 142.351562 71.460938 143.460938 71.460938 C 145.890625 71.460938 148.136719 70.753906 150.09375 69.605469 L 159.328125 82.390625 C 157.152344 84.191406 155.402344 86.476562 154.199219 89.066406 L 136.535156 81.5 Z M 121.820312 93.058594 C 107.4375 93.058594 95.730469 104.75 95.730469 119.125 C 95.730469 121.28125 96.023438 123.367188 96.523438 125.375 L 82.34375 129.613281 C 80.828125 125.566406 77.976562 122.183594 74.316406 119.984375 L 92.441406 84.621094 C 94.75 85.617188 97.289062 86.175781 99.957031 86.175781 C 107.140625 86.175781 113.605469 82.125 116.835938 75.796875 L 133.375 82.882812 L 129.355469 94.179688 C 126.96875 93.457031 124.441406 93.058594 121.820312 93.058594 Z M 98.378906 70.21875 C 97.308594 69.382812 96.367188 68.039062 95.871094 66.625 C 95.734375 66.234375 95.417969 65.945312 95.035156 65.835938 C 94.992188 65.746094 94.941406 65.609375 94.90625 65.429688 C 94.875 65.230469 94.878906 65.074219 94.890625 64.972656 C 95.226562 64.730469 95.441406 64.320312 95.441406 63.890625 C 95.433594 61.953125 95.429688 60.277344 96 59.214844 C 96.375 58.515625 97.15625 57.710938 99.984375 57.707031 C 102.757812 57.710938 103.542969 58.515625 103.914062 59.214844 C 104.484375 60.277344 104.480469 61.953125 104.476562 63.945312 C 104.476562 64.371094 104.6875 64.757812 105.027344 64.984375 C 105.039062 65.085938 105.039062 65.230469 105.011719 65.40625 C 104.976562 65.601562 104.921875 65.746094 104.878906 65.835938 C 104.496094 65.945312 104.179688 66.234375 104.042969 66.625 C 103.546875 68.039062 102.609375 69.382812 101.539062 70.21875 C 101.222656 70.464844 101.042969 70.882812 101.054688 71.277344 C 101.082031 72.273438 101.101562 72.898438 101.199219 73.28125 C 101.492188 74.476562 102.460938 75.375 103.730469 75.628906 C 105.558594 75.996094 108.40625 78.046875 110.0625 80.15625 C 107.226562 82.363281 103.710938 83.664062 99.957031 83.664062 C 96.144531 83.664062 92.640625 82.351562 89.84375 80.167969 C 91.5 78.054688 94.355469 76 96.183594 75.628906 C 97.453125 75.375 98.425781 74.476562 98.714844 73.292969 C 98.8125 72.898438 98.835938 72.273438 98.863281 71.246094 C 98.871094 70.84375 98.691406 70.464844 98.378906 70.21875 Z M 99.957031 50.742188 C 109.042969 50.742188 116.433594 58.128906 116.433594 67.203125 C 116.433594 69.457031 115.988281 71.636719 115.105469 73.691406 C 114.328125 75.5 113.226562 77.085938 111.925781 78.464844 C 109.855469 75.898438 106.625 73.648438 104.222656 73.164062 C 104.109375 73.140625 103.730469 73.039062 103.644531 72.691406 C 103.609375 72.511719 103.59375 72.171875 103.582031 71.78125 C 104.671875 70.789062 105.589844 69.472656 106.191406 68.039062 C 106.820312 67.652344 107.304688 66.867188 107.488281 65.832031 C 107.660156 64.792969 107.460938 63.890625 106.992188 63.320312 C 106.992188 61.351562 106.925781 59.507812 106.136719 58.03125 C 105.117188 56.128906 103.105469 55.199219 99.925781 55.195312 C 96.808594 55.199219 94.796875 56.128906 93.777344 58.03125 C 92.996094 59.5 92.925781 61.328125 92.925781 63.320312 C 92.453125 63.890625 92.257812 64.800781 92.429688 65.855469 C 92.613281 66.875 93.097656 67.65625 93.722656 68.039062 C 94.324219 69.472656 95.242188 70.789062 96.332031 71.78125 C 96.320312 72.167969 96.308594 72.507812 96.273438 72.6875 C 96.1875 73.039062 95.804688 73.140625 95.691406 73.164062 C 93.285156 73.652344 90.050781 75.902344 87.984375 78.476562 C 85.199219 75.527344 83.480469 71.566406 83.480469 67.203125 C 83.480469 58.128906 90.871094 50.742188 99.957031 50.742188 Z M 44.515625 89.511719 C 44.515625 83.625 49.308594 78.839844 55.199219 78.839844 C 61.085938 78.839844 65.875 83.625 65.875 89.511719 C 65.875 92.167969 64.863281 94.574219 63.25 96.441406 C 61.949219 94.992188 59.90625 93.480469 58.085938 93.136719 C 58.070312 93.046875 58.0625 92.917969 58.054688 92.761719 C 58.742188 92.101562 59.324219 91.261719 59.726562 90.34375 C 60.1875 90.007812 60.535156 89.414062 60.671875 88.652344 C 60.796875 87.894531 60.667969 87.226562 60.34375 86.757812 C 60.328125 84.1875 60.019531 81.023438 55.171875 81.015625 C 52.90625 81.019531 51.4375 81.714844 50.675781 83.144531 C 50.117188 84.1875 50.054688 85.429688 50.050781 86.773438 C 49.730469 87.25 49.597656 87.921875 49.722656 88.671875 C 49.859375 89.425781 50.207031 90.011719 50.671875 90.351562 C 51.070312 91.257812 51.648438 92.09375 52.332031 92.753906 C 52.316406 92.910156 52.292969 93.039062 52.242188 93.121094 C 50.480469 93.476562 48.445312 94.992188 47.144531 96.445312 C 45.53125 94.574219 44.515625 92.167969 44.515625 89.511719 Z M 49.007812 98.171875 C 50.085938 96.9375 51.675781 95.800781 52.734375 95.585938 C 53.75 95.382812 54.527344 94.660156 54.761719 93.703125 C 54.832031 93.410156 54.847656 93.015625 54.871094 92.246094 C 54.882812 91.84375 54.703125 91.464844 54.386719 91.21875 C 53.722656 90.699219 53.144531 89.867188 52.835938 88.988281 C 52.726562 88.679688 52.511719 88.4375 52.238281 88.292969 C 52.230469 88.253906 52.226562 88.210938 52.21875 88.171875 C 52.4375 87.9375 52.566406 87.617188 52.566406 87.285156 C 52.5625 86.085938 52.558594 84.953125 52.894531 84.328125 C 53.011719 84.109375 53.316406 83.53125 55.214844 83.527344 C 57.738281 83.53125 57.832031 84.246094 57.828125 87.316406 C 57.828125 87.648438 57.957031 87.953125 58.175781 88.183594 C 58.167969 88.21875 58.160156 88.257812 58.15625 88.292969 C 57.882812 88.4375 57.667969 88.679688 57.558594 88.988281 C 57.25 89.867188 56.667969 90.699219 56.003906 91.214844 C 55.691406 91.460938 55.511719 91.871094 55.523438 92.273438 C 55.542969 92.984375 55.5625 93.402344 55.636719 93.699219 C 55.867188 94.660156 56.640625 95.382812 57.652344 95.585938 C 58.714844 95.800781 60.308594 96.9375 61.386719 98.171875 C 59.636719 99.425781 57.511719 100.179688 55.199219 100.179688 C 52.886719 100.179688 50.757812 99.425781 49.007812 98.171875 Z M 59 102.070312 C 64.414062 100.425781 68.390625 95.453125 68.390625 89.511719 C 68.390625 87.84375 68.046875 86.261719 67.480469 84.792969 L 83.582031 76.769531 C 85.195312 79.515625 87.480469 81.816406 90.210938 83.457031 L 72.085938 118.820312 C 69.777344 117.824219 67.238281 117.265625 64.570312 117.265625 C 63.722656 117.265625 62.898438 117.339844 62.082031 117.445312 Z M 48.09375 136.238281 C 48.09375 127.160156 55.484375 119.777344 64.570312 119.777344 C 73.65625 119.777344 81.046875 127.160156 81.046875 136.238281 C 81.046875 140.601562 79.328125 144.5625 76.542969 147.507812 C 74.476562 144.933594 71.242188 142.683594 68.835938 142.199219 C 68.722656 142.175781 68.339844 142.074219 68.257812 141.726562 C 68.21875 141.546875 68.207031 141.207031 68.195312 140.8125 C 69.285156 139.824219 70.207031 138.507812 70.804688 137.070312 C 71.429688 136.6875 71.914062 135.902344 72.101562 134.867188 C 72.269531 133.828125 72.074219 132.925781 71.601562 132.355469 C 71.601562 130.386719 71.535156 128.542969 70.75 127.066406 C 69.730469 125.160156 67.71875 124.234375 64.539062 124.226562 C 61.421875 124.234375 59.410156 125.160156 58.390625 127.066406 C 57.609375 128.53125 57.539062 130.363281 57.535156 132.355469 C 57.066406 132.929688 56.867188 133.835938 57.039062 134.890625 C 57.226562 135.910156 57.707031 136.6875 58.335938 137.074219 C 58.9375 138.507812 59.855469 139.824219 60.945312 140.8125 C 60.933594 141.199219 60.917969 141.542969 60.882812 141.722656 C 60.796875 142.074219 60.417969 142.175781 60.300781 142.199219 C 57.898438 142.683594 54.664062 144.933594 52.597656 147.507812 C 49.8125 144.558594 48.09375 140.601562 48.09375 136.238281 Z M 54.457031 149.203125 C 56.109375 147.089844 58.964844 145.035156 60.796875 144.664062 C 62.070312 144.410156 63.035156 143.507812 63.328125 142.324219 C 63.425781 141.933594 63.445312 141.304688 63.472656 140.277344 C 63.484375 139.878906 63.304688 139.5 62.988281 139.253906 C 61.917969 138.414062 60.980469 137.074219 60.484375 135.660156 C 60.347656 135.269531 60.03125 134.980469 59.648438 134.871094 C 59.605469 134.78125 59.554688 134.644531 59.519531 134.464844 C 59.488281 134.265625 59.488281 134.109375 59.5 134.007812 C 59.839844 133.765625 60.050781 133.355469 60.050781 132.925781 C 60.046875 130.984375 60.042969 129.3125 60.613281 128.25 C 60.984375 127.550781 61.769531 126.746094 64.597656 126.742188 C 67.371094 126.746094 68.152344 127.550781 68.527344 128.25 C 69.097656 129.3125 69.09375 130.984375 69.085938 132.976562 C 69.085938 133.40625 69.300781 133.792969 69.636719 134.019531 C 69.648438 134.121094 69.652344 134.261719 69.621094 134.441406 C 69.589844 134.636719 69.535156 134.78125 69.488281 134.871094 C 69.109375 134.980469 68.792969 135.269531 68.65625 135.660156 C 68.160156 137.074219 67.21875 138.414062 66.148438 139.253906 C 65.835938 139.5 65.65625 139.914062 65.667969 140.3125 C 65.691406 141.304688 65.714844 141.933594 65.8125 142.316406 C 66.101562 143.507812 67.070312 144.410156 68.339844 144.664062 C 70.171875 145.035156 73.027344 147.089844 74.683594 149.203125 C 71.886719 151.382812 68.382812 152.699219 64.570312 152.699219 C 60.757812 152.699219 57.25 151.382812 54.457031 149.203125 Z M 94.816406 175.535156 C 95.894531 174.300781 97.488281 173.164062 98.546875 172.949219 C 99.5625 172.746094 100.339844 172.023438 100.566406 171.082031 C 100.640625 170.78125 100.65625 170.382812 100.679688 169.609375 C 100.691406 169.210938 100.511719 168.828125 100.195312 168.582031 C 99.53125 168.066406 98.953125 167.230469 98.644531 166.351562 C 98.535156 166.042969 98.320312 165.800781 98.050781 165.65625 C 98.042969 165.617188 98.035156 165.574219 98.027344 165.535156 C 98.246094 165.300781 98.375 164.984375 98.375 164.648438 C 98.371094 163.203125 98.367188 161.953125 98.898438 161.421875 C 99.246094 161.070312 99.949219 160.894531 101.023438 160.890625 C 102.0625 160.894531 102.761719 161.070312 103.113281 161.421875 C 103.644531 161.953125 103.640625 163.203125 103.636719 164.675781 C 103.636719 165.011719 103.765625 165.320312 103.980469 165.546875 C 103.976562 165.582031 103.96875 165.621094 103.960938 165.65625 C 103.691406 165.800781 103.476562 166.042969 103.367188 166.351562 C 103.058594 167.230469 102.476562 168.066406 101.816406 168.582031 C 101.496094 168.828125 101.324219 169.304688 101.332031 169.707031 C 101.355469 170.382812 101.371094 170.78125 101.441406 171.058594 C 101.671875 172.023438 102.449219 172.746094 103.464844 172.949219 C 104.523438 173.164062 106.117188 174.300781 107.199219 175.535156 C 105.449219 176.789062 103.320312 177.546875 101.007812 177.546875 C 98.695312 177.546875 96.566406 176.789062 94.816406 175.535156 Z M 111.6875 166.875 C 111.6875 169.53125 110.671875 171.9375 109.058594 173.808594 C 107.753906 172.355469 105.714844 170.84375 103.890625 170.492188 C 103.878906 170.40625 103.867188 170.285156 103.863281 170.128906 C 104.550781 169.464844 105.132812 168.625 105.53125 167.714844 C 105.996094 167.375 106.34375 166.78125 106.480469 166.019531 C 106.601562 165.277344 106.472656 164.609375 106.152344 164.132812 C 106.144531 162.40625 106.046875 160.800781 104.894531 159.648438 C 104.046875 158.796875 102.78125 158.378906 100.980469 158.378906 C 99.230469 158.378906 97.964844 158.796875 97.117188 159.648438 C 95.96875 160.796875 95.863281 162.394531 95.859375 164.132812 C 95.539062 164.609375 95.40625 165.285156 95.535156 166.035156 C 95.667969 166.789062 96.015625 167.378906 96.480469 167.714844 C 96.878906 168.621094 97.457031 169.460938 98.140625 170.117188 C 98.125 170.269531 98.101562 170.398438 98.050781 170.484375 C 96.285156 170.839844 94.253906 172.355469 92.953125 173.808594 C 91.339844 171.9375 90.324219 169.53125 90.324219 166.875 C 90.324219 160.992188 95.117188 156.203125 101.007812 156.203125 C 106.894531 156.203125 111.6875 160.992188 111.6875 166.875 Z M 105.074219 154.398438 C 103.785156 153.976562 102.433594 153.691406 101.007812 153.691406 C 97.414062 153.691406 94.160156 155.140625 91.777344 157.472656 L 79.855469 147.449219 C 82.175781 144.304688 83.5625 140.433594 83.5625 136.238281 C 83.5625 134.785156 83.382812 133.378906 83.070312 132.019531 L 97.242188 127.78125 C 99.519531 134.203125 104.230469 139.464844 110.277344 142.460938 Z M 106.902344 137.339844 C 106.953125 137.292969 107.015625 137.269531 107.058594 137.214844 C 109.441406 134.035156 113.652344 130.988281 116.4375 130.429688 C 118.019531 130.113281 119.230469 128.996094 119.589844 127.523438 C 119.710938 127.039062 119.742188 126.210938 119.78125 124.769531 C 119.792969 124.371094 119.613281 123.988281 119.300781 123.742188 C 117.722656 122.511719 116.351562 120.546875 115.625 118.484375 C 115.464844 118.03125 115.070312 117.714844 114.609375 117.652344 C 114.5 117.507812 114.335938 117.183594 114.25 116.71875 C 114.171875 116.230469 114.222656 115.863281 114.273438 115.691406 C 114.703125 115.472656 114.988281 114.988281 114.988281 114.496094 C 114.984375 111.710938 114.976562 109.304688 115.832031 107.703125 C 116.375 106.6875 117.582031 105.332031 121.859375 105.324219 C 126.050781 105.332031 127.261719 106.683594 127.804688 107.699219 C 128.660156 109.300781 128.652344 111.703125 128.648438 114.558594 C 128.648438 115.054688 128.9375 115.492188 129.367188 115.699219 C 129.417969 115.875 129.46875 116.234375 129.386719 116.699219 C 129.300781 117.179688 129.136719 117.503906 129.03125 117.652344 C 128.570312 117.714844 128.171875 118.03125 128.011719 118.484375 C 127.289062 120.546875 125.914062 122.511719 124.339844 123.742188 C 124.027344 123.988281 123.847656 124.367188 123.855469 124.765625 C 123.894531 126.148438 123.925781 127.023438 124.046875 127.515625 C 124.410156 128.996094 125.617188 130.113281 127.195312 130.429688 C 129.984375 130.988281 134.195312 134.035156 136.578125 137.214844 C 136.621094 137.269531 136.679688 137.300781 136.730469 137.347656 C 132.664062 140.671875 127.472656 142.675781 121.820312 142.675781 C 116.164062 142.675781 110.96875 140.671875 106.902344 137.339844 Z M 138.566406 135.671875 C 135.8125 132.023438 131.042969 128.640625 127.691406 127.964844 C 127.070312 127.839844 126.621094 127.449219 126.488281 126.917969 C 126.441406 126.699219 126.410156 125.96875 126.390625 125.308594 C 127.976562 123.921875 129.308594 122.019531 130.148438 119.941406 C 130.96875 119.515625 131.621094 118.496094 131.867188 117.125 C 132.097656 115.734375 131.816406 114.550781 131.164062 113.882812 C 131.167969 111.117188 131.097656 108.527344 130.023438 106.515625 C 128.691406 104.03125 126.023438 102.820312 121.773438 102.8125 C 117.609375 102.820312 114.941406 104.03125 113.613281 106.519531 C 112.546875 108.519531 112.472656 111.085938 112.472656 113.882812 C 111.824219 114.554688 111.542969 115.742188 111.773438 117.148438 C 112.019531 118.503906 112.667969 119.515625 113.488281 119.941406 C 114.328125 122.015625 115.664062 123.921875 117.25 125.308594 C 117.226562 125.964844 117.199219 126.703125 117.148438 126.921875 C 117.019531 127.449219 116.570312 127.839844 115.941406 127.964844 C 112.589844 128.640625 107.824219 132.023438 105.074219 135.671875 C 100.859375 131.417969 98.246094 125.570312 98.246094 119.125 C 98.246094 106.136719 108.820312 95.574219 121.820312 95.574219 C 134.816406 95.574219 145.390625 106.136719 145.390625 119.125 C 145.390625 125.570312 142.78125 131.417969 138.566406 135.671875 Z M 145.230469 107.699219 C 142.429688 101.996094 137.628906 97.457031 131.722656 95.023438 L 135.691406 83.875 L 153.28125 91.410156 C 152.734375 93.175781 152.4375 95.054688 152.4375 97 C 152.4375 99.480469 152.929688 101.84375 153.800781 104.015625 Z M 161.316406 109.964844 C 162.96875 107.851562 165.824219 105.796875 167.660156 105.425781 C 168.929688 105.171875 169.898438 104.273438 170.1875 103.078125 C 170.285156 102.6875 170.308594 102.046875 170.335938 101.039062 C 170.34375 100.640625 170.167969 100.261719 169.851562 100.015625 C 168.78125 99.175781 167.84375 97.835938 167.347656 96.421875 C 167.207031 96.03125 166.890625 95.742188 166.511719 95.632812 C 166.464844 95.542969 166.414062 95.40625 166.378906 95.222656 C 166.347656 95.023438 166.351562 94.871094 166.363281 94.769531 C 166.699219 94.527344 166.910156 94.121094 166.910156 93.695312 C 166.90625 91.753906 166.902344 90.078125 167.472656 89.011719 C 167.84375 88.3125 168.628906 87.507812 171.457031 87.503906 C 174.230469 87.507812 175.015625 88.3125 175.390625 89.011719 C 175.960938 90.078125 175.953125 91.753906 175.949219 93.738281 C 175.949219 94.167969 176.164062 94.550781 176.5 94.78125 C 176.507812 94.878906 176.511719 95.027344 176.480469 95.207031 C 176.449219 95.398438 176.394531 95.542969 176.347656 95.632812 C 175.96875 95.742188 175.652344 96.03125 175.515625 96.421875 C 175.019531 97.835938 174.078125 99.175781 173.007812 100.015625 C 172.695312 100.261719 172.515625 100.640625 172.523438 101.039062 C 172.550781 102.046875 172.578125 102.6875 172.671875 103.078125 C 172.960938 104.273438 173.929688 105.171875 175.199219 105.425781 C 177.035156 105.796875 179.890625 107.851562 181.542969 109.964844 C 178.75 112.148438 175.242188 113.460938 171.429688 113.460938 C 167.617188 113.460938 164.109375 112.148438 161.316406 109.964844 Z M 183.402344 108.269531 C 181.335938 105.695312 178.101562 103.445312 175.695312 102.960938 C 175.582031 102.9375 175.199219 102.835938 175.117188 102.496094 C 175.082031 102.3125 175.066406 101.96875 175.054688 101.574219 C 176.144531 100.585938 177.0625 99.269531 177.664062 97.835938 C 178.292969 97.449219 178.777344 96.664062 178.960938 95.632812 C 179.136719 94.589844 178.9375 93.6875 178.464844 93.117188 C 178.464844 91.148438 178.398438 89.304688 177.609375 87.828125 C 176.589844 85.925781 174.582031 84.996094 171.398438 84.988281 C 168.28125 84.996094 166.269531 85.925781 165.25 87.828125 C 164.46875 89.296875 164.398438 91.128906 164.394531 93.117188 C 163.925781 93.691406 163.726562 94.597656 163.902344 95.648438 C 164.085938 96.671875 164.566406 97.453125 165.195312 97.835938 C 165.796875 99.269531 166.71875 100.585938 167.804688 101.574219 C 167.792969 101.964844 167.78125 102.308594 167.746094 102.484375 C 167.660156 102.835938 167.28125 102.9375 167.164062 102.960938 C 164.757812 103.445312 161.523438 105.699219 159.457031 108.273438 C 156.671875 105.324219 154.953125 101.363281 154.953125 97 C 154.953125 87.921875 162.34375 80.539062 171.429688 80.539062 C 180.511719 80.539062 187.90625 87.921875 187.90625 97 C 187.90625 101.363281 186.1875 105.320312 183.402344 108.269531 Z M 183.402344 108.269531 " fill-opacity="1" fill-rule="nonzero"/></g></svg>